<?xml version="1.0" encoding="utf-8"?>
<!-- Generator: Adobe Illustrator 27.5.0, SVG Export Plug-In . SVG Version: 6.00 Build 0)  -->
<svg version="1.1" id="BACKGROUND" xmlns="http://www.w3.org/2000/svg" xmlns:xlink="http://www.w3.org/1999/xlink" x="0px" y="0px"
	 viewBox="0 0 750 500" style="enable-background:new 0 0 750 500;" xml:space="preserve">
<rect style="fill:#FBFAD4;" width="750" height="500"/>
<g>
	<g>
		<g>
			<defs>
				<rect id="SVGID_1_" width="750" height="500"/>
			</defs>
			<clipPath id="SVGID_00000024002611297383168900000004459753830542319009_">
				<use xlink:href="#SVGID_1_"  style="overflow:visible;"/>
			</clipPath>
			<g style="opacity:0.4;clip-path:url(#SVGID_00000024002611297383168900000004459753830542319009_);">
				<g>
					<g>
						<g>
							
								<line style="fill:none;stroke:#EC886E;stroke-width:2;stroke-linecap:square;stroke-linejoin:round;" x1="-43.087" y1="-1.615" x2="-39.587" y2="-1.615"/>
							
								<line style="fill:none;stroke:#EC886E;stroke-width:2;stroke-linecap:square;stroke-linejoin:round;stroke-dasharray:6.9981,5.9984;" x1="-33.588" y1="-1.615" x2="886.167" y2="-1.615"/>
							
								<line style="fill:none;stroke:#EC886E;stroke-width:2;stroke-linecap:square;stroke-linejoin:round;" x1="889.167" y1="-1.615" x2="892.667" y2="-1.615"/>
						</g>
					</g>
					<g>
						<g>
							
								<line style="fill:none;stroke:#EC886E;stroke-width:2;stroke-linecap:square;stroke-linejoin:round;" x1="-43.087" y1="98.957" x2="-39.587" y2="98.957"/>
							
								<line style="fill:none;stroke:#EC886E;stroke-width:2;stroke-linecap:square;stroke-linejoin:round;stroke-dasharray:6.9981,5.9984;" x1="-33.588" y1="98.957" x2="886.167" y2="98.957"/>
							
								<line style="fill:none;stroke:#EC886E;stroke-width:2;stroke-linecap:square;stroke-linejoin:round;" x1="889.167" y1="98.957" x2="892.667" y2="98.957"/>
						</g>
					</g>
					<g>
						<g>
							
								<line style="fill:none;stroke:#EC886E;stroke-width:2;stroke-linecap:square;stroke-linejoin:round;" x1="-43.087" y1="199.528" x2="-39.587" y2="199.528"/>
							
								<line style="fill:none;stroke:#EC886E;stroke-width:2;stroke-linecap:square;stroke-linejoin:round;stroke-dasharray:6.9981,5.9984;" x1="-33.588" y1="199.528" x2="886.167" y2="199.528"/>
							
								<line style="fill:none;stroke:#EC886E;stroke-width:2;stroke-linecap:square;stroke-linejoin:round;" x1="889.167" y1="199.528" x2="892.667" y2="199.528"/>
						</g>
					</g>
					<g>
						<g>
							
								<line style="fill:none;stroke:#EC886E;stroke-width:2;stroke-linecap:square;stroke-linejoin:round;" x1="-43.087" y1="300.099" x2="-39.587" y2="300.099"/>
							
								<line style="fill:none;stroke:#EC886E;stroke-width:2;stroke-linecap:square;stroke-linejoin:round;stroke-dasharray:6.9981,5.9984;" x1="-33.588" y1="300.099" x2="886.167" y2="300.099"/>
							
								<line style="fill:none;stroke:#EC886E;stroke-width:2;stroke-linecap:square;stroke-linejoin:round;" x1="889.167" y1="300.099" x2="892.667" y2="300.099"/>
						</g>
					</g>
					<g>
						<g>
							
								<line style="fill:none;stroke:#EC886E;stroke-width:2;stroke-linecap:square;stroke-linejoin:round;" x1="-43.087" y1="400.671" x2="-39.587" y2="400.671"/>
							
								<line style="fill:none;stroke:#EC886E;stroke-width:2;stroke-linecap:square;stroke-linejoin:round;stroke-dasharray:6.9981,5.9984;" x1="-33.588" y1="400.671" x2="886.167" y2="400.671"/>
							
								<line style="fill:none;stroke:#EC886E;stroke-width:2;stroke-linecap:square;stroke-linejoin:round;" x1="889.167" y1="400.671" x2="892.667" y2="400.671"/>
						</g>
					</g>
					<g>
						<g>
							
								<line style="fill:none;stroke:#EC886E;stroke-width:2;stroke-linecap:square;stroke-linejoin:round;" x1="-43.087" y1="501.242" x2="-39.587" y2="501.242"/>
							
								<line style="fill:none;stroke:#EC886E;stroke-width:2;stroke-linecap:square;stroke-linejoin:round;stroke-dasharray:6.9981,5.9984;" x1="-33.588" y1="501.242" x2="886.167" y2="501.242"/>
							
								<line style="fill:none;stroke:#EC886E;stroke-width:2;stroke-linecap:square;stroke-linejoin:round;" x1="889.167" y1="501.242" x2="892.667" y2="501.242"/>
						</g>
					</g>
					<g>
						<g>
							
								<line style="fill:none;stroke:#EC886E;stroke-width:2;stroke-linecap:square;stroke-linejoin:round;" x1="-43.087" y1="601.814" x2="-39.587" y2="601.814"/>
							
								<line style="fill:none;stroke:#EC886E;stroke-width:2;stroke-linecap:square;stroke-linejoin:round;stroke-dasharray:6.9981,5.9984;" x1="-33.588" y1="601.814" x2="886.167" y2="601.814"/>
							
								<line style="fill:none;stroke:#EC886E;stroke-width:2;stroke-linecap:square;stroke-linejoin:round;" x1="889.167" y1="601.814" x2="892.667" y2="601.814"/>
						</g>
					</g>
					<g>
						<g>
							
								<line style="fill:none;stroke:#EC886E;stroke-width:2;stroke-linecap:square;stroke-linejoin:round;" x1="-43.087" y1="702.385" x2="-39.587" y2="702.385"/>
							
								<line style="fill:none;stroke:#EC886E;stroke-width:2;stroke-linecap:square;stroke-linejoin:round;stroke-dasharray:6.9981,5.9984;" x1="-33.588" y1="702.385" x2="886.167" y2="702.385"/>
							
								<line style="fill:none;stroke:#EC886E;stroke-width:2;stroke-linecap:square;stroke-linejoin:round;" x1="889.167" y1="702.385" x2="892.667" y2="702.385"/>
						</g>
					</g>
				</g>
				<g>
					<g>
						<g>
							
								<line style="fill:none;stroke:#EC886E;stroke-width:2;stroke-linecap:square;stroke-linejoin:round;" x1="772.754" y1="-117.492" x2="772.754" y2="-113.992"/>
							
								<line style="fill:none;stroke:#EC886E;stroke-width:2;stroke-linecap:square;stroke-linejoin:round;stroke-dasharray:6.9981,5.9984;" x1="772.754" y1="-107.993" x2="772.754" y2="811.763"/>
							
								<line style="fill:none;stroke:#EC886E;stroke-width:2;stroke-linecap:square;stroke-linejoin:round;" x1="772.754" y1="814.762" x2="772.754" y2="818.262"/>
						</g>
					</g>
					<g>
						<g>
							
								<line style="fill:none;stroke:#EC886E;stroke-width:2;stroke-linecap:square;stroke-linejoin:round;" x1="672.183" y1="-117.492" x2="672.183" y2="-113.992"/>
							
								<line style="fill:none;stroke:#EC886E;stroke-width:2;stroke-linecap:square;stroke-linejoin:round;stroke-dasharray:6.9981,5.9984;" x1="672.183" y1="-107.993" x2="672.183" y2="811.763"/>
							
								<line style="fill:none;stroke:#EC886E;stroke-width:2;stroke-linecap:square;stroke-linejoin:round;" x1="672.183" y1="814.762" x2="672.183" y2="818.262"/>
						</g>
					</g>
					<g>
						<g>
							
								<line style="fill:none;stroke:#EC886E;stroke-width:2;stroke-linecap:square;stroke-linejoin:round;" x1="571.612" y1="-117.492" x2="571.612" y2="-113.992"/>
							
								<line style="fill:none;stroke:#EC886E;stroke-width:2;stroke-linecap:square;stroke-linejoin:round;stroke-dasharray:6.9981,5.9984;" x1="571.612" y1="-107.993" x2="571.612" y2="811.763"/>
							
								<line style="fill:none;stroke:#EC886E;stroke-width:2;stroke-linecap:square;stroke-linejoin:round;" x1="571.612" y1="814.762" x2="571.612" y2="818.262"/>
						</g>
					</g>
					<g>
						<g>
							
								<line style="fill:none;stroke:#EC886E;stroke-width:2;stroke-linecap:square;stroke-linejoin:round;" x1="471.04" y1="-117.492" x2="471.04" y2="-113.992"/>
							
								<line style="fill:none;stroke:#EC886E;stroke-width:2;stroke-linecap:square;stroke-linejoin:round;stroke-dasharray:6.9981,5.9984;" x1="471.04" y1="-107.993" x2="471.04" y2="811.763"/>
							
								<line style="fill:none;stroke:#EC886E;stroke-width:2;stroke-linecap:square;stroke-linejoin:round;" x1="471.04" y1="814.762" x2="471.04" y2="818.262"/>
						</g>
					</g>
					<g>
						<g>
							
								<line style="fill:none;stroke:#EC886E;stroke-width:2;stroke-linecap:square;stroke-linejoin:round;" x1="370.469" y1="-117.492" x2="370.469" y2="-113.992"/>
							
								<line style="fill:none;stroke:#EC886E;stroke-width:2;stroke-linecap:square;stroke-linejoin:round;stroke-dasharray:6.9981,5.9984;" x1="370.469" y1="-107.993" x2="370.469" y2="811.763"/>
							
								<line style="fill:none;stroke:#EC886E;stroke-width:2;stroke-linecap:square;stroke-linejoin:round;" x1="370.469" y1="814.762" x2="370.469" y2="818.262"/>
						</g>
					</g>
					<g>
						<g>
							
								<line style="fill:none;stroke:#EC886E;stroke-width:2;stroke-linecap:square;stroke-linejoin:round;" x1="269.898" y1="-117.492" x2="269.898" y2="-113.992"/>
							
								<line style="fill:none;stroke:#EC886E;stroke-width:2;stroke-linecap:square;stroke-linejoin:round;stroke-dasharray:6.9981,5.9984;" x1="269.898" y1="-107.993" x2="269.898" y2="811.763"/>
							
								<line style="fill:none;stroke:#EC886E;stroke-width:2;stroke-linecap:square;stroke-linejoin:round;" x1="269.898" y1="814.762" x2="269.898" y2="818.262"/>
						</g>
					</g>
					<g>
						<g>
							
								<line style="fill:none;stroke:#EC886E;stroke-width:2;stroke-linecap:square;stroke-linejoin:round;" x1="169.326" y1="-117.492" x2="169.326" y2="-113.992"/>
							
								<line style="fill:none;stroke:#EC886E;stroke-width:2;stroke-linecap:square;stroke-linejoin:round;stroke-dasharray:6.9981,5.9984;" x1="169.326" y1="-107.993" x2="169.326" y2="811.763"/>
							
								<line style="fill:none;stroke:#EC886E;stroke-width:2;stroke-linecap:square;stroke-linejoin:round;" x1="169.326" y1="814.762" x2="169.326" y2="818.262"/>
						</g>
					</g>
					<g>
						<g>
							
								<line style="fill:none;stroke:#EC886E;stroke-width:2;stroke-linecap:square;stroke-linejoin:round;" x1="68.755" y1="-117.492" x2="68.755" y2="-113.992"/>
							
								<line style="fill:none;stroke:#EC886E;stroke-width:2;stroke-linecap:square;stroke-linejoin:round;stroke-dasharray:6.9981,5.9984;" x1="68.755" y1="-107.993" x2="68.755" y2="811.763"/>
							
								<line style="fill:none;stroke:#EC886E;stroke-width:2;stroke-linecap:square;stroke-linejoin:round;" x1="68.755" y1="814.762" x2="68.755" y2="818.262"/>
						</g>
					</g>
				</g>
			</g>
			<g style="clip-path:url(#SVGID_00000024002611297383168900000004459753830542319009_);">
				<g>
					<g>
						<g>
							<path style="fill:none;stroke:#91C6B6;stroke-miterlimit:10;" d="M417.182,132.775c-22.635-5.296-37.372-13.2-48.636-24.113
								c-14.412-13.963-24.94-28.943-33.108-44.742c-13.513-26.134-32.559-41.875-54.769-49.724
								c-24.273-8.577-49.472-6.248-73.294,5.495c-20.568,10.139-6.093,49.424,3.24,59.424
								c22.979,24.62,45.798,53.094,38.087,80.416c-9.131,32.355-9.459,58.827-5.309,83.565
								c4.607,27.462,15.432,51.799,30.848,78.066c16.869,28.741,31.528,24.6,44.898,6.202c9.856-13.563,18.376-34.48,24.733-55.021
								c8.609-27.816,22.65-36.505,39.828-42.924c16.351-6.11,34.779-11.919,57.233-22.719
								c23.167-11.143,29.966-27.631,21.633-43.042C455.681,150.925,439.174,137.92,417.182,132.775z"/>
						</g>
						<g>
							<path style="fill:none;stroke:#91C6B6;stroke-miterlimit:10;" d="M223.093,35.943c-23.121,10.054-6.573,30.565,10.493,55.689
								c13.808,20.328,27.147,43.147,21.858,62.641c-7.669,27.977-7.099,51.892-4.017,74.386
								c3.352,24.461,10.247,47.303,23.617,70.677c25.663,44.869,47.127-6.694,63.674-46.115
								c17.913-42.675,45.414-34.584,83.43-53.016c35.592-17.337,20.926-50.952-19.227-61.261
								c-41.458-10.644-54.82-38.351-68.611-63.09c-12.103-21.711-28.22-37.015-47.157-43.981
								C266.419,24.246,243.734,26.967,223.093,35.943z"/>
						</g>
						<g>
							
								<path style="fill:none;stroke:#91C6B6;stroke-width:1.5;stroke-linecap:round;stroke-linejoin:round;stroke-miterlimit:10;stroke-dasharray:0,3;" d="
								M238.96,52.247c-21.284,7.703-9.063,25.117,4.14,45.513c10.474,16.181,23.684,34.842,19.386,51.384
								c-6.152,23.679-9.037,44.628-6.299,65.154c2.878,21.572,10.322,41.692,21.607,62.091
								c22.023,39.809,38.046-10.819,56.553-41.743c18.459-30.844,38.354-27.602,68.312-42.384
								c28.906-14.264,18.834-42.399-12.897-51.67c-31.312-9.149-43.193-31.73-56.275-53.059
								c-10.624-17.322-24.574-30.66-40.281-36.753C275.978,44.095,256.341,45.957,238.96,52.247z"/>
						</g>
						<g>
							<path style="fill:none;stroke:#91C6B6;stroke-miterlimit:10;" d="M255.081,68.83c-34.682,9.249,22.96,47.095,15.431,78.319
								c-4.625,19.179-8.906,37.072-7.778,54.549c1.149,17.788,6.954,35.088,16.226,52.616
								c18.382,34.749,28.908-15.331,50.288-38.213c17.805-19.056,32.158-20.361,54.078-31.448
								c22.203-11.23,15.977-31.94-7.4-40.239c-21.161-7.512-30.869-27.428-43.334-45.324
								C313.614,71.842,281.873,61.686,255.081,68.83z"/>
						</g>
						<g>
							<path style="fill:none;stroke:#91C6B6;stroke-miterlimit:10;" d="M271.588,86.072c-31.64,1.259,13.028,34.247,7.724,59.309
								c-6.099,28.819-15.095,57.699-0.353,87.388c14.742,29.689,16.783-24.399,42.803-38.412
								c15.406-8.297,29.095-8.489,42.988-15.857c15.49-8.216,12.987-24.415-2.154-31.958c-11.039-5.499-20.481-20.506-32.505-34.87
								C314.723,93.314,291.947,85.262,271.588,86.072z"/>
						</g>
						<g>
							<path style="fill:none;stroke:#91C6B6;stroke-miterlimit:10;" d="M348.587,149.109c-3.031-4.576-32.435-44.721-60.463-46.929
								c-28.028-2.209,1.301,22.313-1.672,41.233c-2.974,18.92-14.661,41.222-3.56,65.851s2.841-32.995,34.097-32.708
								C349.316,176.852,358.078,163.439,348.587,149.109z"/>
						</g>
					</g>
					<g>
						<g>
							<path style="fill:none;stroke:#F55D47;stroke-miterlimit:10;" d="M322.983,525.548
								c-11.079-29.39-24.247-46.062-30.243-67.329c-4.796-17.009,8.993-35.18,8.225-48.966
								c-1.729-31.023,5.248-57.151,29.594-86.293c24.346-29.142,16.88-49.146,26.127-63.835
								c9.247-14.69,32.904-24.204,60.937-33.961c28.033-9.757,41.617-18.73,49.549-29.375c7.932-10.645,6.861-28.012-6.065-45.374
								c-22.333-30-44.396-63.882-36.497-95.597c5.048-20.267,25.572-42.714,60.739-37.194c19.238,3.019,41.994,15.554,68.304,38.24
								c8.582,7.4,17.349,15.273,34.763,21.794c20.435,7.652,31.138,5.539,41.317,16.292c6.521,6.889,10.388,13.781,11.963,28.199
								c0.963,8.813,2.648,31.188-8.678,51.909c-6.207,11.356-12.743,11.136-23.077,22.977
								c-19.067,21.845-24.675,46.11-27.59,55.838c-9.43,31.477-7.006,57.944-3.699,83.423c1.881,14.492,1.614,25.092,6.326,38.029
								c8.648,23.743,21.452,34.74,39.412,57.1c26.329,32.779,42.914,50.75,49.653,75.494c5.856,21.5,7.643,47.464-1.13,79.243
								c-7.694,27.871-25.776,47.607-49.013,58.736c-22.423,10.739-50.248,14.504-76.733,14.4
								c-28.245-0.111-56.64-4.112-77.488-11.078c-19.114-6.387-37.573-20.056-56.67-32.103
								c-18.69-11.79-37.05-24.392-51.907-38.679C342.969,559.998,329.156,541.924,322.983,525.548z"/>
						</g>
						<g>
							<path style="fill:none;stroke:#91C6B6;stroke-miterlimit:10;" d="M553.001,67.413c48.961,40.189,63.82,22.837,75.156,54.692
								c0.772,2.17,1.618,9.95,1.332,12.235c-0.758,6.056-1.907,12.126-4.919,18.443c-10.163,21.314-35.757,40.202-49.698,65.571
								c-7.914,14.361-9.981,31.807-10.084,50.055c-0.129,23.044-1.563,41.5-0.693,56.93c1.286,22.815,4.633,40.033,11.403,56.132
								c5.308,12.495,15.731,23.678,27.554,38.786c13.166,16.824,33.243,36.33,42.683,65.388
								c6.728,20.709,6.502,46.252-0.099,77.623c-2.929,14.454-7.905,26.323-15.563,35.882
								c-16.59,20.768-43.571,30.651-71.88,34.872c-28.902,4.309-59.119,2.884-81.377-3.289
								c-25.316-7.284-49.956-22.181-71.82-38.454c-24.743-18.416-45.185-39.333-54.476-59.788
								c-8.335-14.219-16.355-29.028-16.961-46.056c-1.287-20.945-3.16-36.718-6.425-50.77c-3.094-13.352-3.66-21.679-4.094-35.983
								c-1.459-28.141,9.512-54.839,27.993-81.603c21.818-25.796,16.78-42.586,25.822-55.993
								c9.057-13.419,31.951-21.257,56.984-30.491c24.968-9.178,40.675-17.612,48.052-27.624c7.314-9.915,1.235-26.869-9.098-47.703
								c-14.814-29.867-32.277-53.674-30.347-78.351c2.206-28.204,17.939-45.901,45.857-42.42
								C505.979,37.701,528.792,47.542,553.001,67.413z"/>
						</g>
						<g>
							
								<path style="fill:none;stroke:#91C6B6;stroke-width:1.5;stroke-linecap:round;stroke-linejoin:round;stroke-miterlimit:10;stroke-dasharray:0,3;" d="
								M550.92,73.528c43.783,35.135,69.397,19.1,68.317,59.587c-0.003,7.314-2.99,13.907-6.688,20.994
								c-10.524,20.165-29.028,37.548-41.995,61.623c-7.237,13.362-13.877,28.527-14.339,45.573
								c-1.378,50.885-1.747,78.773,5.128,104.859c3.262,12.029,11.276,29.109,20.17,43.329
								c10.519,16.817,28.724,33.056,38.59,57.595c7.163,17.817,7.576,40.289,3.92,68.611c-1.469,13.011-2.622,24.795-8.022,33.853
								c-12.274,20.284-36.653,30.88-61.289,37.308c-25.39,6.624-52.655,8.788-72.459,4.712
								c-22.428-5.118-44.589-18.308-64.983-31.744c-22.593-14.885-41.467-32.227-51.244-49.866
								c-10.965-13.301-19.786-28.886-16.554-50.183c3.144-25.471,2.814-42.527-0.436-57.257
								c-3.107-14.147-7.054-26.186-7.325-44.07c-1.188-25.258,4.316-46.896,24.941-70.491
								c19.291-22.449,15.576-38.834,24.412-50.96c8.867-12.149,31.816-18.009,53.848-26.719
								c21.903-8.598,36.707-14.322,43.527-23.701c8-11.75-6.719-41.516-7.398-42.941c-12.934-26.947-30.73-56.269-26.314-78.426
								c4.133-20.737,18.715-36.28,42.03-35.339C510.925,50.446,529.056,55.983,550.92,73.528z"/>
						</g>
						<g>
							<path style="fill:none;stroke:#91C6B6;stroke-miterlimit:10;" d="M549.145,81.525c38.028,28.84,62.275,20.152,58.47,58.003
								c-0.419,6.626-2.613,12.821-6.333,19.305c-10.906,19.011-28.794,33.426-40.789,56.207
								c-6.56,12.364-12.353,26.86-13.191,42.707c-2.359,44.645,0.919,70.944,3.32,96.129c1.217,11.563,3.152,22.727,9.236,35.86
								c7.792,16.82,21.269,34.707,30.722,58.137c7.19,17.823,13.458,38.367,12.802,63.974c-0.01,11.568-1.066,21.854-4.209,30.411
								c-7.964,19.72-27.724,32.839-48.601,41.45c-21.904,9.034-46.051,11.519-63.45,9.552
								c-19.546-2.913-42.132-7.565-61.111-18.155c-20.429-11.398-38.201-27.043-48.415-41.865
								c-13.594-12.383-22.433-31.157-15.362-56.721c7.575-29.997,5.846-47.073,2.612-62.482c-3.119-14.942-7.083-28.14-7.19-49.604
								c-0.917-22.376,7.298-41.426,26.063-62.248c16.763-19.103,15.39-33.41,24.02-44.254
								c8.677-10.878,27.923-17.721,46.956-25.908c18.838-8.019,32.298-14.168,38.562-22.914c6.076-8.456-3.667-32.802-4.099-34.14
								c-8.75-27.078-16.676-45.724-17.989-67.645c-1.18-19.696,9.021-36.425,27.548-40.47
								C511.648,64.031,528.783,66.083,549.145,81.525z"/>
						</g>
						<g>
							<path style="fill:none;stroke:#91C6B6;stroke-miterlimit:10;" d="M547.297,89.571c32.296,22.533,56.906,21.359,50.375,56.576
								c-0.836,5.937-1.468,13.118-5.201,19.004c-11.315,17.844-28.466,29.047-39.487,50.533
								c-5.883,11.365-9.96,24.112-11.198,38.763c-3.246,38.401-4.269,63.996-6.342,88.28c-0.829,11.098-1.493,21.524,1.991,33.372
								c5.019,17.071,16.13,34.181,25.428,54.806c7.373,16.355,14.345,34.414,16.846,57.063c1.449,10.126,5.125,19.32,4.239,27.376
								c-3.708,19.044-20.103,34.232-37.13,44.952c-18.406,11.588-40.271,17.542-55.305,17.721
								c-16.656-0.643-35.642-6.015-53.286-13.733c-18.261-7.988-34.371-19.309-44.952-31.323
								c-16.224-11.466-29.421-30.112-18.512-59.944c12.007-34.523,12.588-52.135,9.37-68.222
								c-3.132-15.737-9.843-29.389-9.786-54.434c-0.647-19.493,11.191-34.346,28.095-52.394
								c14.236-15.756,12.864-30.042,21.288-39.604c8.486-9.608,25.835-14.414,41.867-22.078
								c15.774-7.439,26.11-15.446,31.819-23.558c5.457-7.726-1.575-31.264-1.995-32.427c-7.863-21.764-8.521-32.819-11.243-56.281
								C480.369,91.199,506.111,60.835,547.297,89.571z"/>
						</g>
						<g>
							
								<path style="fill:none;stroke:#91C6B6;stroke-width:1.5;stroke-linecap:round;stroke-linejoin:round;stroke-miterlimit:10;stroke-dasharray:0,3;" d="
								M544.168,99.624c26.606,16.195,52.843,20.774,43.588,53.357c-1.252,5.249-5.959,9.636-9.694,14.93
								c-11.753,16.66-23.655,27.614-33.703,47.807c-5.206,10.367-10.608,21.678-12.287,35.133
								c-4.014,32.159-4.676,57.451-11.224,80.833c-2.875,10.632-4.936,19.801-3.759,30.242
								c1.965,17.434,12.894,32.312,21.982,50.247c7.534,14.869,15.918,31.418,21.733,50.978c2.909,8.683,4.002,17.276,5.372,24.83
								c0.888,38.849-46.106,69.935-70.008,74.469c-27.204,3.431-67.842-8.542-89.75-27.194
								c-18.853-10.548-32.737-31.295-17.989-65.394c16.438-39.049,18.232-57.548,15.03-74.314
								c-3.144-16.532-10.202-30.673-9.982-59.299c-0.376-16.61,10.158-29.434,25.201-44.709
								c11.708-12.41,12.259-25.031,20.477-33.312c8.296-8.337,21.886-15.401,34.918-22.54c12.709-6.86,22.06-12.027,27.213-19.506
								c4.839-6.996,3.179-14.261,0.779-24.186c-0.248-1.026-0.401-2.004-0.691-3.037c-5.363-19.155-2.265-31.773-6.674-54.108
								C488.386,102.867,511.385,79.669,544.168,99.624z"/>
						</g>
						<g>
							<path style="fill:none;stroke:#91C6B6;stroke-miterlimit:10;" d="M542.304,107.951c20.992,9.767,46.298,21.709,34.317,51.657
								c-1.669,4.561-5.096,9.183-8.823,13.893c-12.225,15.447-26.567,21.602-35.642,40.5c-4.529,9.369-8.081,20.809-10.268,33.057
								c-4.631,25.94-8.082,49.59-19.104,72.071c-4.92,10.166-7.082,19.849-7.901,28.933c-1.573,17.443,9.906,37.957,22.368,58.54
								c11.15,18.417,25.441,36.483,32.38,54.074c9.139,23.17,3.457,40.058-5.276,52.665
								c-12.042,17.383-33.766,24.743-44.699,29.799c-20.513,8.17-55.798,6.141-78.808-7.541
								c-21.482-9.63-34.261-29.011-15.674-67.379c20.869-43.575,19.403-64.219,16.217-81.663
								c-3.157-17.327-7.348-32.187-6.964-64.393c-0.105-13.728,6.833-25.031,20.015-37.532
								c9.181-9.063,13.059-18.652,21.071-25.651c8.106-7.067,19.641-12.242,29.673-18.859c9.644-6.28,17.17-12.398,21.767-19.244
								c4.22-6.266,5.778-13.489,4.779-21.508c-0.111-0.895-1.007-1.697-1.164-2.6c-2.881-16.541-6.979-32.169-5.774-46.168
								C507.554,118.535,518.024,96.654,542.304,107.951z"/>
						</g>
						<g>
							<path style="fill:none;stroke:#91C6B6;stroke-miterlimit:10;" d="M540.447,116.998c17.674,3.403,43.269,25.719,13.379,59.041
								c-12.732,14.194-23.274,19.91-31.376,37.514c-10.779,23.421-11.269,59.738-35.384,93.321
								c-21.842,30.417-16.923,53.809-4.034,74.875c12.038,19.674,34.698,37.271,48.005,62.859
								c22.229,42.743,12.723,72.211-18.675,88.709c-13.824,12.91-53.713,12.315-77.825,3.602
								c-24.112-8.713-41.246-30.67-18.821-73.305c25.3-48.102,27.51-68.07,24.34-86.192c-3.169-18.122-9.353-25.945-8.806-61.73
								c0.278-18.194,21.353-37.079,43.629-55.408c21.54-17.723,42.788-34.83,42.164-55.114
								C515.477,154.223,518.877,112.845,540.447,116.998z"/>
						</g>
					</g>
					<g>
						<path style="fill:none;stroke:#F55D47;stroke-miterlimit:10;" d="M46.373-99.344c0.981,31.905,8.66,56.784,16.766,76.53
							c12.725,30.999,30.659,50.348,50.929,57.598c28.043,10.03,56.565-1.948,71.142-20.052
							c15.837-19.669,31.054-25.842,45.873-28.27c14.96-2.451,30.405,1.683,52.458,11.149
							c25.427,10.914,42.387,28.644,55.349,48.536c15.777,24.212,26.844,49.078,41.29,62.624
							c26.315,24.676,56.842,20.661,40.658-14.696c-15.742-34.391-6.219-61.978,17.477-75.76
							c19.272-11.209,40.752-15.15,70.694-1.23c17.114,7.957,36.354,22.45,60.235,42.588c20.423,17.222,45.953,19.253,66.3,9.678
							c20.886-9.828,36.076-32.202,40.469-54.472c5.771-29.255,0.762-55.422-15.003-75.63
							c-15.004-19.234-38.642-34.784-65.006-45.122c-23.613-9.259-50.807-15.242-77.489-16.846"/>
					</g>
					<g>
						
							<path style="fill:none;stroke:#91C6B6;stroke-width:1.5;stroke-linecap:round;stroke-linejoin:round;stroke-miterlimit:10;stroke-dasharray:0,3;" d="
							M379.404,29.724c2.937,30.635-0.793,25.729-13.227,31.122c-18.694,8.108,43.742,78.594,46.706,43.534
							c0.774-9.155-13.091-33.579-8.091-55.579c2.399-10.556-10.434-34.003-21.192-31.752
							C380.436,17.712,379.253,28.157,379.404,29.724z"/>
					</g>
					<g>
						<path style="fill:none;stroke:#91C6B6;stroke-miterlimit:10;" d="M471.539,382.519c21.568,22.395,39.657,42.451,50.788,62.183
							c12.976,23,16.102,46.574-1.122,76.312c-17.372,29.994-48.229,37.5-71.668,32.886c-28.469-5.604-46.975-30.402-17.612-62.337
							c16.56-18.01,22.014-39.277,24.866-58.619C462.319,395.47,455.077,365.426,471.539,382.519z"/>
					</g>
					<g>
						<path style="fill:none;stroke:#91C6B6;stroke-miterlimit:10;" d="M477.545,421.653c3.692-8.066,32.41,8.218,26.393,61.455
							c-4.35,38.486-79.334,41.879-42.787-3.988C483.748,450.761,469.989,438.16,477.545,421.653z"/>
					</g>
					<g>
						<path style="fill:none;stroke:#91C6B6;stroke-miterlimit:10;" d="M493.756,268.207c-12.428,28.66-22.9,33.193-28.073,63.944
							c-5.173,30.751-34.86,5.728-24.253-19.73C452.037,286.962,499.517,254.921,493.756,268.207z"/>
					</g>
					<g>
						<path style="fill:none;stroke:#91C6B6;stroke-miterlimit:10;" d="M296.385,128.128c-2.87-23.153,35.091,12.941,34.254,24.91
							c-0.837,11.969-12.035-0.727-18.744,10.326C305.187,174.415,298.045,141.517,296.385,128.128z"/>
					</g>
					<g>
						<path style="fill:none;stroke:#91C6B6;stroke-miterlimit:10;" d="M661.615-93.477c8.881,27.645-50.203-6.857-51.956-21.686
							c-1.753-14.83,19.281-1.603,24.919-16.673C640.217-146.907,656.479-109.464,661.615-93.477z"/>
					</g>
					<g>
						<path style="fill:none;stroke:#91C6B6;stroke-miterlimit:10;" d="M528.513,152.59c0.041-27.141,28.738-26.338,23.646-3.661
							c-5.091,22.677-21.059,45.896-25.784,41.453C521.649,185.938,528.48,174.476,528.513,152.59z"/>
					</g>
					<g>
						<g>
							<path style="fill:none;stroke:#91C6B6;stroke-miterlimit:10;" d="M188.924,55.204c-1.48,38.019,42.159,38.193,43.271,88.043
								c0.642,28.766-9.361,47.581-11.088,72.443c-1.266,18.223-0.059,40.53,14.514,71.571
								c19.537,41.615,23.51,55.821,13.137,55.139c-9.252-0.608-29.618-12.094-55.539-29.398
								c-16.907-11.287-45.232-33.767-69.437-60.503c-23.284-25.719-44.4-49.152-43.594-88.529
								c0.391-19.122,6.946-40.33,16.257-58.96c9.863-19.735,24.547-36.35,38.307-47.152
								C161.503,36.858,189.849,31.464,188.924,55.204z"/>
						</g>
						<g>
							
								<path style="fill:none;stroke:#91C6B6;stroke-width:1.5;stroke-linecap:round;stroke-linejoin:round;stroke-miterlimit:10;stroke-dasharray:0,3;" d="
								M175.402,68.473c0.13,35.108,37.202,38.181,39.995,78.302c1.821,26.158-2.658,43.413-2.728,70.967
								c0.015,19.089-0.934,38.162,8.179,59.261c25.899,59.964,11.471,58.73-38.755,18.587
								c-12.833-10.257-32.563-29.155-53.525-51.057c-21.08-22.025-39.705-48.643-40.179-82.424
								c-0.294-20.976,10.021-40.399,20.153-57.997c8.203-14.247,16.21-27.748,26.343-35.916
								C156.262,50.964,175.324,47.56,175.402,68.473z"/>
						</g>
						<g>
							<path style="fill:none;stroke:#91C6B6;stroke-miterlimit:10;" d="M167.295,81.864c1.821,32.211,31.138,37.639,35.462,67.999
								c3.016,21.176-0.967,36.604-0.769,63.549c0.156,21.303-1.37,38.547,3.974,53.322c14.853,41.067,7.672,37.597-27.736,9.995
								c-10.96-8.544-28.485-20.7-45.171-36.841c-18.921-18.302-30.482-42.368-32.077-70.539
								c-1.114-19.667,4.069-38.611,11.914-55.498c6.771-14.576,14.923-26.327,23.577-33.567
								C152.502,66.868,166.273,63.785,167.295,81.864z"/>
						</g>
						<g>
							<path style="fill:none;stroke:#91C6B6;stroke-miterlimit:10;" d="M157.508,95.336c3.639,29.313,22.952,37.389,28.514,57.979
								c4.379,16.21,3.571,29.461,3.926,55.799c0.384,23.516,0.974,38.139,2.609,46.867c4.063,21.691,0.554,19.257-19.922,4.064
								c-8.037-5.963-21.397-13.516-34.678-24.959c-16.841-14.51-28.096-35.516-30.621-58.082
								c-2.054-18.357,3.601-37.402,9.265-53.527c5.25-14.948,10.764-28.908,17.917-35.249
								C145.267,78.699,155.616,80.091,157.508,95.336z"/>
						</g>
						<g>
							<path style="fill:none;stroke:#91C6B6;stroke-miterlimit:10;" d="M151.871,108.032c5.659,26.37,11.521,37.721,17.758,48.763
								c6.237,11.042,8.738,22.297,9.306,48.028c0.568,25.73,2.545,37.008-1.589,39.68c-2.067,1.336-5.585,3.061-10.835-0.128
								c-5.25-3.189-10.123-11.926-19.895-18.814c-14.914-10.513-23.286-24.598-26.51-41.602
								c-3.224-17.004-1.588-34.825,2.016-50.169c3.603-15.344,8.364-28.075,13.932-33.606
								C141.62,94.651,149.203,95.6,151.871,108.032z"/>
						</g>
					</g>
					<g>
						<g>
							<path style="fill:none;stroke:#91C6B6;stroke-miterlimit:10;" d="M116.668-121.548
								c36.303,11.391,21.409,54.307,67.981,72.119c26.874,10.278,47.013,9.656,71.009,16.389
								c17.588,4.935,35.311,16.469,59.644,40.632c34.587,34.344,53.864,41.955,57.091,29.237
								c2.531-9.977-3.087-33.894-15.315-68.598c-7.21-20.462-16.626-52.945-33.017-83.521
								c-8.395-15.66-18.682-31.182-31.822-43.901c-12.516-12.115-27.744-22.779-45.967-28.869
								c-18.234-6.093-38.08-2.581-56.882,1.159c-19.717,3.922-38.51,10.32-53.238,19.601
								C107.378-149.169,93.999-128.66,116.668-121.548z"/>
						</g>
						<g>
							<path style="fill:none;stroke:#91C6B6;stroke-miterlimit:10;" d="M237.524-179.353
								c-35.745-10.594-72.146,5.338-89.719,20.827c-18.517,16.322-30.24,32.256-12.121,38.625
								c29.967,10.533,20.448,43.635,56.747,58.862c21.646,9.08,39.084,6.611,59.284,13.274c14.41,4.753,30.815,14.118,51.549,32.62
								c31.72,28.306,46.772,37.612,50.273,27.357c2.855-8.361-3.367-28.878-14.174-60.642
								c-6.629-19.741-14.619-48.251-30.645-73.372C292.692-146.924,269.55-169.862,237.524-179.353z"/>
						</g>
						<g>
							<path style="fill:none;stroke:#91C6B6;stroke-miterlimit:10;" d="M228.382-168.831c-34.2-8.581-69.306,0.033-72.881,15.791
								c-10.935,11.202-13.932,27.395-0.359,32.981c23.633,9.726,20.441,31.512,46.471,44.1
								c27.608,13.351,43.218,11.406,84.9,43.432c28.827,22.148,43.997,27.538,47.779,19.904c3.274-6.609-0.497-24.397-9.83-53.432
								c-6.108-19.002-18.293-40.499-33.954-60.165C274.848-145.885,255.005-162.151,228.382-168.831z"/>
						</g>
						<g>
							<path style="fill:none;stroke:#91C6B6;stroke-miterlimit:10;" d="M220.319-162.396c-32.729-6.324-61.236,3.573-52.212,18.145
								c-2.016,7.738-1.681,17.097,7.366,21.826c17.275,9.03,18.619,23.793,34.409,33.609
								c18.113,11.261,30.316,14.426,63.393,34.548c50.53,30.74,50.79,25.54,34.388-28.799
								c-5.519-18.285-15.751-36.806-31.046-51.015C261.322-148.292,241.476-158.308,220.319-162.396z"/>
						</g>
						<g>
							<path style="fill:none;stroke:#91C6B6;stroke-miterlimit:10;" d="M179.813-138.102c22.932,14.197,28.18,28.232,36.482,37.819
								c8.302,9.587,18.24,17.375,42.281,26.562c48.081,18.375,45.326,19.612,32.521-26.462
								c-4.886-17.581-17.057-28.826-31.987-37.58c-14.93-8.754-31.535-15.159-47.197-16.925
								C180.59-158.221,158.191-151.489,179.813-138.102z"/>
						</g>
					</g>
					<g>
						<g>
							<path style="fill:none;stroke:#91C6B6;stroke-miterlimit:10;" d="M-13.508,76.984c-29.316-24.254,1.231-58.775-35.17-92.851
								c-21.005-19.664-40.422-26.414-60.1-41.709c-14.423-11.21-28.229-26.678-41.639-58.239
								c-19.061-44.86-33.714-59.415-41.504-48.857c-6.111,8.283-6.821,32.757-8.599,69.508
								c-1.048,21.669-8.292,55.227-4.658,89.728c1.861,17.67,5.624,36.107,12.99,52.845c7.016,15.944,18.605,30.213,33.181,42.732
								c14.939,12.831,33.629,21.405,52.933,24.94c19.304,3.536,39.145,1.275,55.888-1.689
								C-16.697,107.467,4.797,92.128-13.508,76.984z"/>
						</g>
						<g>
							<path style="fill:none;stroke:#91C6B6;stroke-miterlimit:10;" d="M-145.834-91.178
								c-18.686-38.187-31.088-52.009-38.202-43.835c-5.8,6.665-6.981,28.351-8.965,61.845c-1.152,19.385-4.067,47.288,0.07,75.793
								c4.221,29.084,14.698,58.573,39.912,80.055c12.792,10.889,28.67,17.3,44.764,20.932c16.722,3.773,33.875,6.622,48.208,4.818
								c28.864-3.56,46.602-18.519,30.334-33.365c-25.955-23.641-4.993-51.683-33.31-80.243
								c-16.527-16.668-30.307-24.685-46.524-38.453C-121.118-53.451-133.62-66.217-145.834-91.178z"/>
						</g>
						<g>
							<path style="fill:none;stroke:#91C6B6;stroke-miterlimit:10;" d="M-139.633-67.308
								c-18.309-31.353-28.135-41.465-34.543-35.877c-5.563,4.851-10.254,21.45-12.481,51.911
								c-1.255,17.101-2.03,39.933,2.572,62.439c4.84,23.671,15.123,48.385,35.672,65.688c10.645,8.947,25.441,10.861,38.328,14.549
								c14.141,4.047,27.747,10.321,39.672,9.706c24.238-1.25,39.743-14.431,25.511-28.979
								c-22.595-23.029-11.424-44.567-31.658-67.61S-113.127-21.916-139.633-67.308z"/>
						</g>
						<g>
							<path style="fill:none;stroke:#91C6B6;stroke-miterlimit:10;" d="M-135.365-42.163
								c-35.185-47.542-38.873-43.721-44.038,12.803c-1.358,14.817,1.029,32.233,6.028,48.745
								c5.526,18.254,15.294,36.63,31.179,49.753c8.498,7.005,20.009,8.955,29.699,12.634c11.549,4.384,22.227,8.462,31.738,9.005
								c19.621,1.121,29.599-4.307,17.405-18.557C-82.59,49.804-74.938,29.412-87.09,11.884
								C-99.241-5.644-112.333-11.042-135.365-42.163z"/>
						</g>
						<g>
							<path style="fill:none;stroke:#91C6B6;stroke-miterlimit:10;" d="M-77.867,68.847C-93.742,47.043-95.831,33.58-99.899,21.568
								c-4.068-12.012-10.982-21.667-29.775-39.251c-37.586-35.168-33.195-36.878-38.733,10.62
								c-4.226,36.249,25.964,63.867,53.636,78.964C-87.1,86.998-62.899,89.406-77.867,68.847z"/>
						</g>
					</g>
					<g>
						<path style="fill:none;stroke:#91C6B6;stroke-miterlimit:10;" d="M135.814,139.975c24.382,31.844,36.491,41.2,34.111,60.347
							c-2.381,19.147-21.642,6.345-33.038-17.441C125.49,159.095,129.576,131.827,135.814,139.975z"/>
					</g>
					<g>
						<path style="fill:none;stroke:#91C6B6;stroke-miterlimit:10;" d="M652.851,367.373c-29.297-27.391-14.052-70.356,2.979-79.423
							c17.031-9.067,43.263,14.388,17.274,39.872c-14.829,14.54-12.751,23.497-11.872,25.752c3.797,9.75,6.74,22.22,3.796,23.867
							C662.414,378.903,656.938,371.194,652.851,367.373z"/>
					</g>
					<g>
						<path style="fill:none;stroke:#F55D47;stroke-miterlimit:10;" d="M140.993,320.647c15.975,34.756,31.88,54.791,48.254,62.339
							c30.045,13.85,59.868-7.931,72.299-23.773c19.206-24.475,48.169-6.196,22.211,60.471
							c-10.342,26.563,2.481,51.936,18.652,79.143c14.62,24.597,30.449,50.063,28.739,78.764
							c-0.785,13.189-21.326,27.473-51.496,39.954c-18.703,7.737-40.933,15.223-64.352,20.984
							c-21.911,5.391-44.94,8.841-66.713,11.399c-25.008,2.938-48.707,5.44-67.689,3.129c-30.921-3.766-47.655-16.496-40.792-39.833
							c3.997-13.591,16.373-29.955,40.43-52.059c10.895-10.01,24.641-31.844,34.912-56.019c8.192-19.28,15.516-41.352,8.309-64.45
							c-5.472-17.537-19.21-34.687-40.31-52.089c-23.437-19.329-40.64-38.849-54.699-56.016
							C7.231,306.319-6.072,283.97-9.55,264.864c-6.003-32.973,12.298-54.76,40.746-56.06c35.712-1.631,56.927,23.126,63.981,30.749
							C117.175,263.329,121.699,278.669,140.993,320.647z"/>
					</g>
					<g>
						<g>
							<path style="fill:none;stroke:#91C6B6;stroke-miterlimit:10;" d="M49.357,657.737c-10.098-31.515-3.338-52.57,12.044-69.663
								c14.983-16.649,37.76-29.529,53.899-50.179c13.222-16.917,24.28-37.942,24.411-68.197
								c0.087-20.093-0.561-40.595-1.228-57.934c-1.231-31.991-1.865-53.391,15.142-42.806
								c21.115,13.141,26.879,23.548,44.555,29.062c6.569,2.049,17.144-0.154,28.387-2.594c5.32-1.154,9.033-1.478,23.061-10.632
								c19.394-12.656,40.623-31.749,22.397,19.487c-9.004,25.311-9.141,45.466-5.995,61.133
								c4.825,24.028,21.487,37.431,34.399,49.538c17.582,16.486,30.326,29.696,8.583,52.6
								c-19.454,20.493-24.811,43.75-27.498,64.527c-4.131,31.941-1.781,56.028-30.489,53.639
								c-13.265-1.104-34.333-2.733-57.965-4.015c-18.574-1.008-38.81-0.576-58-2.272C91.457,675.58,53.106,669.435,49.357,657.737z
								"/>
						</g>
						<g>
							<path style="fill:none;stroke:#91C6B6;stroke-miterlimit:10;" d="M169.187,528.108c6.952-12.831,13.295-21.147,11.852-32.117
								c-1.951-14.835-4.76-31.202,7.116-27.656c9.945,2.969,20.985,28.657,27.988,38.542s16.392,31.125,10.623,37.202
								c-2.959,3.116-26.813,19.306-30.438,20.573C189.078,567.184,148.34,566.584,169.187,528.108z"/>
						</g>
						<g>
							<path style="fill:none;stroke:#91C6B6;stroke-miterlimit:10;" d="M176.142,535.645c6.526-6.977,12.355-9.533,13.255-16.72
								c1.218-9.719,3.049-19.29,9.986-15.079c5.808,3.526,9.669,20.379,12.469,27.798c2.8,7.42,5.632,24.004,0.973,26.898
								c-2.389,1.485-20.853,8.795-23.359,8.997C184.456,567.945,156.572,556.567,176.142,535.645z"/>
						</g>
						<g>
							<path style="fill:none;stroke:#91C6B6;stroke-miterlimit:10;" d="M159.539,384.997c44.221,35.551,61.514,24.875,77.752,15.35
								c16.1-9.444,36.992-21.387,22.997,20.142c-12.725,37.762-5.923,60.27,6.353,76.241c18.397,23.902,46.59,32.454,23.748,57.683
								c-15.492,17.112-20.929,36.385-22.976,53.585c-3.095,26.009,0.011,46.409-23.367,45.488
								c-12.567-0.495-33.224,2.211-55.771,1.581c-13.516-0.378-27.7-2.775-41.341-3.656c-4.022-0.255-7.959-1.057-11.848-1.376
								c-31.69-2.57-58.399-7.141-61.275-16.117c-11.568-36.101,5.927-55.116,26.503-75.195
								c19.976-19.546,41.215-36.936,45.549-69.936c0.176-1.337,0.302-14.121,0.468-25.142
								C147.071,414.757,131.674,362.595,159.539,384.997z"/>
						</g>
						<g>
							
								<path style="fill:none;stroke:#91C6B6;stroke-width:1.5;stroke-linecap:round;stroke-linejoin:round;stroke-miterlimit:10;stroke-dasharray:0,3;" d="
								M162.209,403.521c33.998,27.333,51.594,21.836,64.711,15.435c12.766-6.23,26.804-15.621,17.037,16.192
								c-8.945,29.136,1.074,45.788,10.93,58.682c14.434,18.825,32.992,27.164,16.346,47.027
								c-28.486,33.992-3.892,78.851-34.115,79.62c-10.296,0.262-26.711,2.594-44.696,2.864
								c-10.963,0.164-22.468-1.544-33.517-1.872c-3.27-0.088-6.448-0.973-9.61-1.127c-25.841-1.203-46.413-3.415-48.827-10.948
								c-9.156-28.573,3.537-43.437,18.887-60.649c14.901-16.812,32.883-32.218,33.108-65.124
								c0.026-3.749,2.222-12.001,2.209-19.261C154.602,423.733,140.182,385.813,162.209,403.521z"/>
						</g>
						<g>
							<path style="fill:none;stroke:#91C6B6;stroke-miterlimit:10;" d="M168.99,423.997c23.775,19.114,37.923,18.461,48.028,15.172
								c9.339-3.039,17.803-10.83,12.255,11.247c-5.16,20.531,2.383,33.798,9.818,43.615c10.471,13.748,18.524,22.484,25.378,38.973
								c10.399,25.018-5.919,47.745-34.208,55.016c-7.89,2.028-20.576,0.408-33.99,1.553c-8.416,0.718-16.976,5.058-25.431,5.304
								c-2.518,0.073-5.04-1.005-7.475-0.993c-19.992,0.164-36.12-2.336-38.071-8.427c-6.743-21.045,3.069-32.709,13.156-47.081
								c9.862-14.052,21.259-30.54,22.644-55.176c0.048-0.861-0.17-5.487-0.138-6.366
								C162.102,444.487,152.801,410.982,168.99,423.997z"/>
						</g>
						<g>
							<path style="fill:none;stroke:#91C6B6;stroke-miterlimit:10;" d="M176.249,443.879c13.552,10.895,22.333,11.59,29.684,11.53
								c5.694-0.047,12.433-1.555,11.052,10.721c-1.349,11.992,1.817,20.943,6.846,27.672c6.49,8.684,18.404,23.677,18.479,33.671
								c0.321,42.56-5.966,24.018-18.669,28.338c-5.917,2.012-14.512,2.711-23.348,4.674c-5.876,1.305-11.78,3.146-17.642,3.945
								c-1.767,0.241-3.416,1.192-5.124,1.373c-14.145,1.5-27.016,0.718-28.505-3.931c-4.331-13.516,1.997-23.84,6.856-35.335
								c4.789-11.328,9.811-24.134,10.981-40.539c0.044-0.618,0.143-1.242,0.181-1.867
								C168.519,460.054,165.897,435.556,176.249,443.879z"/>
						</g>
					</g>
					<g>
						<g>
							
								<path style="fill:none;stroke:#91C6B6;stroke-width:1.5;stroke-linecap:round;stroke-linejoin:round;stroke-miterlimit:10;stroke-dasharray:0,3;" d="
								M110.811,385.839c-25.882-8.64-50.039-28.841-68.671-50.13c-18.632-21.289-24.493-46.182-29.984-63.514
								c-10.667-33.667,9.198-57.386,41.181-47.984c18.977,5.579,35.287,26.965,49.284,47.832
								c13.997,20.867,26.332,42.947,32.463,56.384c12.263,26.873,7.721,28.743-9.546,24.2
								C106.321,347.569,124.32,390.348,110.811,385.839z"/>
						</g>
						<g>
							<path style="fill:none;stroke:#91C6B6;stroke-miterlimit:10;" d="M56.65,239.158c15.092,4.437,27.998,21.015,39.225,37.482
								c6.748,9.909,10.983,21.17,15.681,30.347c3.023,5.932,9.323,9.455,11.296,13.716c9.563,20.661,6.213,20.419-6.493,17.542
								c-14.068-3.186-0.208,29.744-10.248,27.208c-3.211-0.811-6.721-2.451-10.824-4.204c-8.005-3.421-17.033-6.279-24.689-11.8
								c-8.721-6.288-18.02-12.782-25.05-20.514c-15.004-16.503-22.599-36.546-24.844-50.644
								C17.26,256.68,30.41,231.445,56.65,239.158z"/>
						</g>
						<g>
							<path style="fill:none;stroke:#91C6B6;stroke-miterlimit:10;" d="M59.475,255.768c11.207,3.295,22.879,12.234,31.336,24.299
								c5.039,7.21,9.321,15.154,12.908,21.979c2.26,4.301,2.629,9.018,4.148,12.221c6.851,14.454,6.514,14.47-1.626,13.265
								c-8.925-1.321,0.68,22.322-5.805,21.938c-1.878-0.111-5.127-1.208-8.854-2.553c-6.378-2.302-12.852-6.714-19.461-11.021
								c-7.339-4.783-16.146-8.655-21.997-14.721c-11.332-11.749-19.373-26.295-21.004-36.537
								C26.43,267.758,38.978,249.742,59.475,255.768z"/>
						</g>
						<g>
							<path style="fill:none;stroke:#91C6B6;stroke-miterlimit:10;" d="M63.523,268.217c7.322,2.152,14.747,8.823,20.435,16.488
								c3.329,4.511,6.571,9.375,9.059,13.843c1.489,2.674,3.241,5.017,4.309,7.161c4.112,8.258,2.095,8.905-1.392,9.686
								c-3.768,0.844,1.841,14.112-0.931,14.312c-0.504,1.035-2.896,1.73-6.267,0.829c-4.716-1.261-9.49-5.42-15.059-8.502
								c-5.948-3.291-11.166-7.479-15.867-11.858c-7.579-7.06-15.033-13.475-16.05-19.861
								C39.824,278.163,48.768,263.88,63.523,268.217z"/>
						</g>
						<g>
							<path style="fill:none;stroke:#91C6B6;stroke-miterlimit:10;" d="M52.241,296.728c-0.55-1.573,0.574-4.262,0.941-6.044
								c1.164-5.645,7.922-8.686,13.514-7.042c5.347,1.572,8.902,7.271,12.846,13.152c3.008,4.485,7.874,10.226,8.859,15.648
								c0.395,2.173-0.738,2.911-2.673,3.584c-2.707,0.942-6.176,1.595-8.514,0.313c-5.615-3.078-10.588-7.471-15.674-11.361
								C58.671,302.781,53.487,300.293,52.241,296.728z"/>
						</g>
					</g>
					<g>
						<g>
							
								<path style="fill:none;stroke:#91C6B6;stroke-width:1.5;stroke-linecap:round;stroke-linejoin:round;stroke-miterlimit:10;stroke-dasharray:0,3;" d="
								M493.031-103.813c30.275,2.225,66.65,11.493,96.109,25.813s54.258,34.187,60.494,53.429
								c9.149,28.23-10.849,69.601-47.622,64.776c-21.819-2.863-43.132-20.39-62.111-40.915
								c-18.979-20.525-36.147-42.581-45.201-56.294C476.592-84.429,454.489-106.645,493.031-103.813z"/>
						</g>
						<g>
							<path style="fill:none;stroke:#91C6B6;stroke-miterlimit:10;" d="M581.977-68.495c12.773,5.87,25.264,11.577,34.24,19.024
								c8.428,6.966,14.442,15.115,16.916,22.748c7.506,23.161-7.14,54.826-37.31,50.867c-17.448-2.289-35.149-14.246-50.404-30.527
								c-6.714-7.17-13.615-14.207-19.133-21.435c-6.878-9.031-11.691-18.104-15.835-24.29c-3.601-5.393-6.924-10.83-10.161-15.401
								c-9.717-13.728-15.501-19.973,5.937-19.074C528.286-85.657,557.229-79.848,581.977-68.495z"/>
						</g>
						<g>
							<path style="fill:none;stroke:#91C6B6;stroke-miterlimit:10;" d="M575.986-61.407c10.285,4.322,18.895,10.738,26.369,16.429
								c7.109,5.37,15.652,9.035,17.594,15.027c5.863,18.092-7.149,44.169-30.716,41.076c-13.077-1.716-28.224-9.73-39.755-21.767
								c-5.045-5.274-6.289-13.908-10.493-19.295c-5.118-6.597-9.339-12.731-12.573-17.447c-2.717-3.992-7.184-6.658-9.623-10.086
								c-7.178-10.1-11.038-18.721,2.818-19.081C533.489-76.91,555.949-69.793,575.986-61.407z"/>
						</g>
						<g>
							<path style="fill:none;stroke:#91C6B6;stroke-miterlimit:10;" d="M570.419-55.523c7.796,2.774,16.277,5.417,22.259,9.336
								c5.78,3.788,8.108,10.137,9.519,14.489c4.221,13.023-2.333,30.082-19.297,27.856c-8.706-1.142-16.511-8.134-24.319-15.927
								c-3.376-3.379-8.272-5.407-11.153-8.96c-3.369-4.155-5.624-8.7-7.937-11.951c-1.84-2.587-3.408-5.281-5.05-7.566
								c-4.639-6.471-7.136-8.727-1.005-10.414C539.337-60.285,555.092-60.943,570.419-55.523z"/>
						</g>
					</g>
					<g>
						
							<path style="fill:none;stroke:#91C6B6;stroke-width:1.5;stroke-linecap:round;stroke-linejoin:round;stroke-miterlimit:10;stroke-dasharray:0,3;" d="
							M212.622,354.127c-9.679-11.834-16.427-15.068-32.723-26.683c-30.066-21.43-32.705-26.942-33.531-26.112
							c-0.809,0.813-1.103,1.923-0.137,4.733c7.427,21.603,18.231,21.582,30.969,46.34
							C189.938,377.164,230.169,375.581,212.622,354.127z"/>
					</g>
					<g>
						<g>
							<path style="fill:none;stroke:#91C6B6;stroke-miterlimit:10;" d="M-15.215,271.249
								c11.478,34.985,25.278,57.226,41.905,76.805c17.833,20.998,37.025,39.666,58.429,66.439
								c18.983,23.746,26.896,50.099,21.701,76.566c-4.607,23.474-18.884,47.323-43.183,68.669
								c-17.835,15.667-40.838,31.246-69.577,43.892c-47.678,20.979-58.723,6.287-58.319-22.361
								c0.294-20.839,5.92-49.799,4.107-79.929c-1.532-25.452-6.598-51.859-24.905-74.534
								c-18.662-23.115-23.559-50.537-21.34-77.052c2.438-29.123,12.103-58.05,26.793-77.089
								C-57.667,244.219-26.814,235.896-15.215,271.249z"/>
						</g>
						<g>
							
								<path style="fill:none;stroke:#91C6B6;stroke-width:1.5;stroke-linecap:round;stroke-linejoin:round;stroke-miterlimit:10;stroke-dasharray:0,3;" d="
								M-19.756,286.137c10.807,31.635,25.425,52.025,40.676,69.975c16.342,19.233,35.653,34.886,54.998,59.339
								c16.556,20.906,24.273,45.698,19.268,70.233c-4.334,21.241-18.831,42.188-40.464,61.648
								c-16.012,14.404-37.135,27.119-63.128,38.556c-43.414,19.103-50.903,7.893-50.534-18.193
								c0.268-18.976,5.282-45.459,3.63-72.894c-1.395-23.175-7.536-47.119-24.206-67.766
								c-16.98-21.031-24.655-46.237-22.809-70.376c2.034-26.584,14.072-52.493,27.33-69.879
								C-55.247,260.883-30.804,254.088-19.756,286.137z"/>
						</g>
						<g>
							<path style="fill:none;stroke:#91C6B6;stroke-miterlimit:10;" d="M-19.482,299.404c10.219,28.246,22.99,46.579,36.84,62.903
								c14.832,17.481,32.689,31.486,49.98,53.626c14.771,18.87,19.32,41.859,14.825,63.982c-3.892,19.156-16.8,37.04-36.269,54.586
								c-14.406,12.983-32.134,26.064-55.57,36.376c-39.15,17.227-43.929,6.784-43.597-16.74
								c0.242-17.112,3.831-41.096,2.342-65.837c-1.258-20.899-6.966-43.251-21.999-61.87
								c-15.297-18.947-19.418-40.541-17.928-62.31c1.646-24.039,9.224-47.095,21.051-62.832
								C-52.23,277.902-29.898,270.614-19.482,299.404z"/>
						</g>
						<g>
							<path style="fill:none;stroke:#91C6B6;stroke-miterlimit:10;" d="M-22.246,313.782c9.584,24.874,23.845,39.786,36.307,54.482
								c13.333,15.724,27.11,30.165,42.346,49.989c19.033,24.673,22.051,56.107,3.826,84.387
								c-12.945,20.088-37.119,38.586-71.049,53.516c-48.637,21.401-40.972-6.055-38.122-44.827
								c1.937-26.356,0.449-57.65-20.211-83.239c-13.616-16.864-15.244-37.419-14.118-56.817c1.249-21.499,5.464-43.46,15.86-57.544
								C-52.011,292.873-32.074,288.275-22.246,313.782z"/>
						</g>
						<g>
							<path style="fill:none;stroke:#91C6B6;stroke-miterlimit:10;" d="M-20.846,326.527c8.942,21.5,17.198,37.445,28.273,50.514
								c11.836,13.967,25.032,25.863,38.214,43.373c16.416,21.689,20.578,48.716,4.676,73.528
								c-11.298,17.628-32.245,34.937-62.031,48.043c-42.692,18.785-35.489-6.566-32.987-40.599
								c1.7-23.134-1.376-50.108-19.51-72.568c-18.25-22.604-15.091-52.39-7.252-75.847
								C-60.055,318.831-33.38,296.391-20.846,326.527z"/>
						</g>
						<g>
							<path style="fill:none;stroke:#91C6B6;stroke-miterlimit:10;" d="M-23.572,340.969c17.141,37.472,38.91,50.649,60.466,80.081
								c13.799,18.703,14.324,41.091,0.745,62.433c-9.65,15.168-26.162,29.519-51.805,40.802
								c-36.747,16.169-30.176-3.674-28.023-32.967c1.464-19.913-0.006-43.626-15.615-62.959
								c-15.703-19.45-16.936-45.5-10.598-65.746C-59.174,333.129-35.346,315.23-23.572,340.969z"/>
						</g>
						<g>
							<path style="fill:none;stroke:#91C6B6;stroke-miterlimit:10;" d="M-24.53,354.669c15.754,30.47,32.145,44.167,49.796,69.098
								c11.144,15.74,16.227,34.766,4.99,52.628c-7.993,12.706-23.184,25.689-44.691,35.152
								c-30.801,13.553-24.839-5.584-23.034-30.137c1.227-16.691-2.23-36.189-15.313-52.394c-13.16-16.3-14.656-38.792-9.82-55.829
								C-55.558,348.369-35.561,333.335-24.53,354.669z"/>
						</g>
						<g>
							<path style="fill:none;stroke:#91C6B6;stroke-miterlimit:10;" d="M-24.479,367.746c14.32,23.482,27.443,36.098,41.132,56.571
								c14.599,21.832,7.277,49.033-34.475,67.405c-41.752,18.372-2.13-31.119-28.22-63.433
								C-72.132,395.973-41.877,339.215-24.479,367.746z"/>
						</g>
						<g>
							<path style="fill:none;stroke:#91C6B6;stroke-miterlimit:10;" d="M-25.271,381.126
								c12.808,16.538,21.909,28.829,31.627,44.851c10.139,16.718,7.15,38.643-24.616,52.62
								c-31.766,13.977-0.809-26.762-20.659-51.347C-58.768,402.665-41.559,360.095-25.271,381.126z"/>
						</g>
						<g>
							<path style="fill:none;stroke:#91C6B6;stroke-miterlimit:10;" d="M-28.772,397.229c11.186,9.733,22.946,16.749,28.658,28.337
								c5.712,11.588,1.638,26.786-20.141,36.369c-21.779,9.583-3.103-14.691-16.713-31.547S-44.106,383.888-28.772,397.229z"/>
						</g>
					</g>
					<g>
						<g>
							<path style="fill:none;stroke:#91C6B6;stroke-miterlimit:10;" d="M1066.815,456.2c-22.216-1.174-42.31,6.836-59.943,16.147
								c-19.452,10.272-35.66,25.462-52.02,33.926c-19.678,10.181-38.575,12.561-57.929-4.232
								c-10.512-9.121-29.762-15.101-54.893-28.581c-15.09-8.094-32.934-17.957-51.05-34.869
								c-13.096-12.225-28.19-26.543-42.109-45.824c-23.746-32.893-18.859-53.182,0.606-63.71
								c15.41-8.335,41.475-8.788,70.756-11.592c22.393-2.144,46.825-6.834,71.305-9.613c24.656-2.799,49.699-4.129,71.155-10.988
								c23.492-7.51,44.349-3.349,64.042,7.514c19.229,10.607,37.565,25.423,50.163,44.443
								c13.573,20.493,22.981,43.573,25.272,62.986C1105.378,439.018,1094.547,457.665,1066.815,456.2z"/>
						</g>
						<g>
							<path style="fill:none;stroke:#91C6B6;stroke-miterlimit:10;" d="M1054.247,453.653
								c-30.913-1.256-55.033,14.129-77.373,28.252c-27.664,17.49-52.711,32.369-78.339,11.375
								c-13.178-10.795-41.108-15.117-74.913-39.867c-18.163-13.298-37.371-33.419-57.682-62.419
								c-21.139-30.105-17.242-45.792,0.401-55.104c14.002-7.39,36.716-9.832,63.271-12.108c20.275-1.738,42.613-3.843,64.803-6.23
								c22.284-2.397,44.759-4.884,64.247-11.115c28.391-9.076,55.598-2.293,77.179,15.282
								c21.492,17.503,37.719,44.097,45.617,67.989C1092.538,423.23,1086.066,454.858,1054.247,453.653z"/>
						</g>
						<g>
							<path style="fill:none;stroke:#91C6B6;stroke-miterlimit:10;" d="M1041.905,446.078
								c-27.871-0.632-49.839,14.271-70.081,26.83c-24.924,15.464-46.236,27.101-69.717,9.159
								c-12.41-9.483-37.779-13.74-67.909-36.181c-16.375-12.197-33.019-30.124-50.971-56.735
								c-24.377-35.933-12.579-47.354,17.435-53.617c20.314-4.239,48.116-5.228,77.159-7.368
								c26.222-1.932,53.822-4.067,77.024-11.485c25.509-8.155,50.308-3.362,69.866,12.087c19.609,15.49,32.793,40.166,40.09,61.52
								C1075.012,420.165,1070.682,446.73,1041.905,446.078z"/>
						</g>
						<g>
							<path style="fill:none;stroke:#91C6B6;stroke-miterlimit:10;" d="M1029.502,440.29
								c-24.825-0.051-44.691,12.422-62.848,23.429c-22.199,13.457-42.285,25.455-63.566,10.534
								c-11.66-8.175-33.13-13.999-59.593-34.138c-14.582-11.097-29.984-26.81-45.614-50.996
								c-20.892-32.329-10.208-44.608,16.279-49.644c17.969-3.417,43.009-0.376,68.713-1.961
								c23.093-1.424,47.446-4.269,68.068-10.862c22.628-7.234,42.644-0.962,60.177,12.355
								c17.733,13.469,33.402,31.968,40.097,50.782C1060.547,416.008,1055.233,440.343,1029.502,440.29z"/>
						</g>
						<g>
							<path style="fill:none;stroke:#91C6B6;stroke-miterlimit:10;" d="M1017.069,432.636
								c-21.767,0.53-39.913,11.734-55.999,21.194c-19.503,11.469-34.898,20.043-53.921,8.092
								c-10.93-6.867-32.228-8.904-55.032-26.731c-12.79-9.998-27.544-23.607-40.806-45.403
								c-23.88-39.246,5.51-42.576,46.684-44.087c27.689-1.017,61.753-0.254,89.073-8.988c29.574-9.454,56.106,6.31,73.357,29
								C1042.81,395.153,1048.158,431.88,1017.069,432.636z"/>
						</g>
						<g>
							<path style="fill:none;stroke:#91C6B6;stroke-miterlimit:10;" d="M1004.745,428.658
								c-41.134,2.439-66.729,43.654-97.322,27.047c-16.095-8.737-51.299-13.064-81.113-66.31
								c-19.209-34.307,6.182-38.872,41.069-39.177c23.383-0.204,52.091,3.259,75.56-4.244c25.356-8.106,48.878,4.713,64.064,23.449
								C1026.845,393.904,1031.74,427.057,1004.745,428.658z"/>
						</g>
						<g>
							<path style="fill:none;stroke:#91C6B6;stroke-miterlimit:10;" d="M992.06,419.611c-34.104,3.676-55.267,36.576-81.565,24.989
								c-15.209-6.701-43.708-11.194-66.415-57.042c-14.538-29.353,4.061-27.011,32.647-26.111
								c19.084,0.601,41.703-2.299,61.328-8.573c21.136-6.757,40.724,6.919,53.842,21.702
								C1009.204,394.083,1014.968,417.142,992.06,419.611z"/>
						</g>
						<g>
							<path style="fill:none;stroke:#91C6B6;stroke-miterlimit:10;" d="M979.989,416.266
								c-27.071,4.865-44.948,24.021-66.767,17.163c-14.418-4.532-37.005-8.36-52.583-46.83
								c-16.43-40.576,35.234-7.098,74.794-19.745C974.994,354.208,1012.88,410.355,979.989,416.266z"/>
						</g>
						<g>
							<path style="fill:none;stroke:#91C6B6;stroke-miterlimit:10;" d="M967.115,408.408c-20.049,5.965-35.23,21.396-52.46,18.823
								c-13.704-2.047-33.978-8.8-42.37-39.919c-8.676-32.175,28.863-1.754,58.961-11.376S992.612,400.822,967.115,408.408z"/>
						</g>
						<g>
							<path style="fill:none;stroke:#91C6B6;stroke-miterlimit:10;" d="M956.138,405.599c-13.118,6.912-26.162,9.435-39.031,10.572
								c-12.869,1.138-29.069-6.028-30.133-29.799c-1.064-23.771,19.073,4.061,39.708-2.536
								C947.318,377.24,974.12,396.124,956.138,405.599z"/>
						</g>
					</g>
					<g>
						<g>
							<path style="fill:none;stroke:#91C6B6;stroke-miterlimit:10;" d="M489.226-24.622c-24.978,0.159-34.861,8.458-55.123,16.171
								c-11.261,4.287-23.329,5.203-33.537-1.058c-10.208-6.261-16.468-18.237-13.707-44.976c2.051-19.86-1.739-34.594,2.212-42.52
								c3.951-7.926,14.127-9.761,32.424-7.203c18.003,2.516,40.505,23.854,56.426,42.937S503.105-24.711,489.226-24.622z"/>
						</g>
						<g>
							<path style="fill:none;stroke:#91C6B6;stroke-miterlimit:10;" d="M428.521-84.913c13.038,2.002,30.975,14.776,42.202,27.891
								c11.227,13.115,15.708,26.423,5.984,26.85c-18.043,0.792-24.908,10.019-39.811,15.368
								c-8.205,2.961-18.907,2.284-26.319-2.346c-7.091-4.43-11.658-14.374-10.063-32.631c1.194-13.664,2.02-22.792,4.452-28.778
								C407.615-85.076,414.228-87.108,428.521-84.913z"/>
						</g>
						<g>
							<path style="fill:none;stroke:#91C6B6;stroke-miterlimit:10;" d="M435.179-63.635c8.076,1.456,18.773,6.271,25.306,13.418
								c6.533,7.147,9.575,16.499,4.015,17.232c-11.132,1.469-16.406,6.007-25.943,9.014c-5.152,1.624-11.221-1.225-15.834-4.229
								c-3.978-2.591-6.656-6.906-6.221-16.677c0.333-7.471-1.83-13.349-0.833-17.333C416.962-67.379,424.889-65.491,435.179-63.635
								z"/>
						</g>
						<g>
							<path style="fill:none;stroke:#91C6B6;stroke-miterlimit:10;" d="M450.856-41.826c-4.153,2.513-7.145,5.61-11.328,6.231
								c-2.091,0.31-5.345,1.271-7.127-0.155c-0.891-0.713,1.48-4.011,0.867-5.291c-0.613-1.28-2.574-1.92-2.776-3.856
								c-0.404-3.873,5.42-1.804,11.681-0.165c3.13,0.82,7.692-1.527,9.531-0.347C453.544-44.229,452.279-42.687,450.856-41.826z"/>
						</g>
					</g>
					<g>
						<g>
							<path style="fill:none;stroke:#F55D47;stroke-miterlimit:10;" d="M68.284-120.961C57.29-95.132,53.42-73.884,52.617-55.851
								C51.346-27.304,58.658-7.481,70.289,7.446c19.389,24.883,46.441,35.983,44.261,49.904
								c-3.327,21.242-70.304,17.808-58.965,71.946c4.857,23.188,9.272,42.967,7.018,56.111
								c-2.602,15.176-15.502,22.228-48.006,16.952c-31.002-5.032-50.799-21.786-67.769-24.496
								c-16.232-2.592-29.29,7.682-46.879,48.359c-6.968,16.115-39.047,9.174-71.16-12.432
								c-19.966-13.434-38.39-34.551-54.611-55.278c-17.222-22.005-31.323-45.724-32.328-69.457
								c-0.997-23.524,10.748-45.069,37.767-63.75c18.11-12.521,36.806-27.593,57.246-41.284
								c19.35-12.961,38.848-26.811,58.551-39.436c20.588-13.192,41.709-24.569,60.798-35.891
								c22.982-13.631,44.323-25.004,62.058-33.47C56.523-143.04,79.117-146.412,68.284-120.961z"/>
						</g>
						<g>
							<path style="fill:none;stroke:#91C6B6;stroke-miterlimit:10;" d="M56.025-102.755C46.946-79.166,39.848-60.109,39.5-43.722
								C38.952-17.878,49.154,0.18,59.484,13.68C76.639,36.099,97.625,45.914,96.12,59.285c-2.335,20.756-58.66,20.135-50.29,67.773
								c7.797,44.374,14.09,73.962-39.965,65.189c-28.314-4.595-46.021-18.665-61.213-20.82
								c-14.633-2.076-26.064,5.89-42.678,41.624c-6.73,14.476-34.627,4.319-64.249-16.51
								c-18.327-12.887-36.244-30.656-51.115-50.185c-15.748-20.681-30.881-42.129-31.971-64.192
								c-1.095-22.179,8.963-45.301,33.919-62.556c16.674-11.529,35.515-23.098,54.375-35.643
								c17.874-11.889,36.047-24.362,54.254-35.839c19.097-12.038,37.605-24.211,55.277-34.343
								c21.529-12.343,42.563-20.518,58.963-27.583C45.429-128.449,65.956-128.56,56.025-102.755z"/>
						</g>
						<g>
							<path style="fill:none;stroke:#91C6B6;stroke-miterlimit:10;" d="M41.654-85.32c-13.063,36.344-12.67,62.227-6.556,81.148
								C47.365,33.786,82.391,44.679,81.274,61.7c-1.33,20.276-46.515,21.353-41.093,62.466c5.118,38.812,4.564,64.714-42.89,57.012
								c-25.612-4.157-41.276-15.194-54.696-16.8c-13.051-1.563-23.873,4.269-39.478,35.066
								c-6.501,12.83-32.944,5.086-60.063-14.955c-16.692-12.335-33.205-29.895-46.736-48.222
								c-14.296-19.362-26.818-40.631-27.991-61.029c-1.2-20.854,8.404-42.408,31.336-58.21
								c19.059-13.133,40.545-27.076,62.26-41.199c21.113-13.732,42.285-28.149,62.896-40.308
								C-51.064-78.707-27.015-88.77-7.997-97.171C30.01-113.96,52.514-115.533,41.654-85.32z"/>
						</g>
						<g>
							
								<path style="fill:none;stroke:#91C6B6;stroke-width:1.5;stroke-linecap:round;stroke-linejoin:round;stroke-miterlimit:10;stroke-dasharray:0,3;" d="
								M28.777-67.282C18.99-34.909,18.942-11.506,24.57,5.225c11.166,33.196,40.728,42.503,40.473,58.778
								c-0.31,19.8-37.24,23.338-34.731,57.89c2.417,33.288-0.536,53.565-41.388,46.935c-45.449-7.377-52.351-33.507-81.67,18.617
								c-7.621,13.549-44.146-2.054-73.628-30.022c-19.891-18.87-35.372-45.237-43.393-69.471
								c-8.827-26.667-5.376-51.309,22.53-70.603c17.19-11.885,35.585-26.114,55.386-38.852
								c19.238-12.376,38.398-25.502,57.21-36.195c22.315-12.685,44.065-21.718,61.397-28.267
								C19.258-98.245,37.839-97.254,28.777-67.282z"/>
						</g>
						<g>
							<path style="fill:none;stroke:#91C6B6;stroke-miterlimit:10;" d="M14.454-49.61c-7.345,28.457-1.188,47.924,4.098,62.522
								c10.15,28.032,30.401,37.997,30.983,53.415c0.729,19.326-29.023,25.147-29.358,53.089
								c-0.334,27.817-5.136,41.188-39.387,35.628c-40.381-6.554-47.956-24.517-74.763,17.309
								c-7.386,11.525-35.533-3.84-61.887-30.266c-17.681-17.73-32.282-40.622-39.545-62.906
								c-8.113-24.891-6.894-48.817,18.1-66.098c20.491-14.168,44.685-29.478,68.554-44.033
								c25.279-15.414,49.264-32.226,70.596-41.096C-0.285-87.792,23.813-85.869,14.454-49.61z"/>
						</g>
						<g>
							<path style="fill:none;stroke:#91C6B6;stroke-miterlimit:10;" d="M3.726-31.026C-1.396-6.473-1.132,11.24,3.836,23.731
								c9.069,22.806,27.854,30.498,29.228,44.981c1.789,18.851-19.551,26.579-22.588,47.853
								c-3.2,22.411-10.943,33.938-38.592,29.451c-35.312-5.731-37.972-17.201-62.015,14.432
								c-7.199,9.471-33.475-7.182-56.671-32.005c-15.492-16.579-32.12-36.204-38.622-56.556
								c-7.396-23.149-1.872-44.668,20.217-59.94c18.384-12.711,38.233-29.415,59.653-42.127
								c23.217-13.778,47.561-22.804,66.638-29.118C-8.015-69.527,11.245-67.07,3.726-31.026z"/>
						</g>
						<g>
							<path style="fill:none;stroke:#91C6B6;stroke-miterlimit:10;" d="M-11.201-13.28c-8.239,55.561,28.198,62.486,31.542,83.878
								c2.871,18.371-10.407,29.166-15.858,43.77c-6.35,17.013-19.993,23.173-41.042,19.757
								c-30.243-4.909-33.352-10.97-54.293,10.71c-7.088,7.338-26.125-7.409-46.123-30.527
								c-13.334-15.414-24.932-33.68-30.667-52.129c-6.668-21.446-5.953-39.972,13.236-53.239
								c16.374-11.321,34.292-25.878,53.273-36.743c21.399-12.249,42.902-21.401,59.647-24.417
								C-18.245-56.407-6.057-47.966-11.201-13.28z"/>
						</g>
						<g>
							<path style="fill:none;stroke:#91C6B6;stroke-miterlimit:10;" d="M-22.907,5.048C-25.619,46.935-0.643,52.532,3.891,72.912
								c9.336,41.961-24.133,55.973-49.307,51.887c-25.174-4.086-22.989-2.015-40.505,10.268
								c-9.435,6.617-40.836-23.019-59.09-55.436c-15.634-27.764-23.763-60.476-0.547-76.528
								C-123.28-12.3-94.603-29.542-71.099-37.83C-41.513-48.263-19.843-42.286-22.907,5.048z"/>
						</g>
					</g>
					<g>
						<g>
							<path style="fill:none;stroke:#91C6B6;stroke-miterlimit:10;" d="M1220.476,186.258
								c-22.67-16.556-41.085-28.338-58.468-33.202c-27.519-7.7-48.279-1.301-65.45,6.649
								c-28.626,13.253-46.999,37.014-60.065,31.739c-19.937-8.05-0.748-75.478-56.047-76.688
								c-23.686-0.518-43.672-0.077-55.965-5.247c-14.193-5.97-17.724-19.102-5.228-49.569
								c11.919-29.058,31.207-45.167,37.688-61.082c6.2-15.224,1.526-32.099-34.113-58.44
								c-14.119-10.435-0.518-36.705,27.797-63.093c17.605-16.407,41.554-30.014,65.415-41.122
								c25.333-11.793,51.392-21.725,74.736-17.332c23.139,4.354,43.073,20.735,55.153,51.281
								c8.097,20.474,16.049,43.071,24.758,66.08c8.244,21.782,16.888,44.045,24.726,66.095
								c8.189,23.04,14.125,46.258,20.832,67.415c8.074,25.469,18.538,47.75,22.77,66.94
								C1248.145,178.078,1242.815,202.572,1220.476,186.258z"/>
						</g>
						<g>
							<path style="fill:none;stroke:#91C6B6;stroke-miterlimit:10;" d="M1145.225-118.177c7.454,18.85,17.101,38.78,25.045,59.995
								c7.528,20.103,15.02,40.822,22.07,61.158c7.395,21.328,11.76,43.088,17.622,62.598c7.141,23.766,13.631,45.071,16.802,62.646
								c6.581,36.475,2.052,56.982-20.798,41.389c-20.413-13.93-37.559-21.904-53.122-25.996
								c-24.509-6.444-42.286-2.807-57.509,3.835c-25.552,11.149-40.538,27.347-52.577,23.155
								c-18.24-6.418-4.136-60.877-52.781-61.926c-23.12-0.471-41.701-0.818-53.096-6.722c-13.191-6.834-17.233-20.264-5.767-48.217
								C942,27.199,961.562,13.836,967.101-0.474c5.335-13.783-1.32-29.172-32.365-53.443c-12.577-9.833,3.133-32.563,30.128-56.701
								c16.701-14.933,35.727-32.868,58.114-42.932c23.709-10.658,49.435-15.082,71.173-11.149
								C1116.002-160.744,1134.067-146.391,1145.225-118.177z"/>
						</g>
						<g>
							<path style="fill:none;stroke:#91C6B6;stroke-miterlimit:10;" d="M1145.53-106.902c8.447,21.359,19.415,44.501,28.249,68.86
								c8.544,23.56,14.376,48.453,21.512,71.26c8.32,26.593,17.63,50.879,21.474,71.297c7.669,40.737,1.066,65.689-25.532,48.773
								c-30.72-19.537-53.456-26.563-72.424-25.565c-39.034,2.053-56.778,29.994-71.352,25.832
								c-16.559-4.73-5.989-48.55-47.98-49.438c-48.734-0.914-75.471-9.04-56.048-56.391c9.847-24.006,27.12-35.703,31.724-48.412
								c4.476-12.358-1.252-26.417-27.717-48.589c-11.028-9.239,2.529-31.231,28.179-53.106
								c15.789-13.465,36.144-25.699,57.059-34.725c22.088-9.532,44.679-14.49,64.819-11.009
								C1118.069-144.559,1135.294-132.784,1145.53-106.902z"/>
						</g>
						<g>
							<path style="fill:none;stroke:#91C6B6;stroke-miterlimit:10;" d="M1144.914-95.265c7.682,19.427,17.54,40.536,25.44,62.736
								c7.669,21.55,13.823,43.912,19.951,64.679c7.263,24.614,13.314,47.305,15.773,65.685c4.63,34.599-0.669,51.881-27.687,35.942
								c-26.602-15.694-48.055-20.266-64.452-19.422c-33.357,1.716-48.682,24.699-61.8,21.983
								c-14.862-3.076-7.771-39.017-43.107-39.744c-47.584-0.812-68.802-11.479-51.328-54.079
								c17.474-42.6,46.301-46.448,2.167-86.805c-11.472-10.49,10.257-38.602,44.172-60.987
								c22.883-15.103,51.077-27.722,76.498-30.049C1108.515-137.887,1132.438-126.813,1144.914-95.265z"/>
						</g>
						<g>
							<path style="fill:none;stroke:#91C6B6;stroke-miterlimit:10;" d="M1144.791-83.821c9.154,23.147,18.703,50.066,27.424,76.676
								c9.219,28.128,20.814,54.998,24.607,77.825c6.766,40.715-1.459,66.797-34.444,48.909
								c-22.439-12.169-39.412-18.923-53.282-18.197c-27.507,1.439-41.263,23.719-52.887,22.454
								c-13.158-1.432-9.06-27.567-37.743-28.069c-46.433-0.813-63.263-21.135-47.738-58.984
								c15.525-37.848,35.966-40.227,1.294-75.806c-9.553-9.804,12.502-33.388,44.208-53.075
								c21.273-13.209,46.243-25.501,69.592-27.53C1111.904-121.887,1133.616-112.078,1144.791-83.821z"/>
						</g>
						<g>
							<path style="fill:none;stroke:#91C6B6;stroke-miterlimit:10;" d="M1148.048-73.715c8.209,20.759,15.151,45.72,22.618,69.56
								c8.068,25.757,13.542,51.042,15.375,71.11c2.992,32.76-5.503,53.148-38.691,36.915c-52.681-25.768-70.735,0.035-86.147,0.298
								c-11.449,0.196-11.195-13.055-33.224-13.406c-45.283-0.72-60.22-27.588-46.644-60.685
								c13.576-33.098,26.006-31.476,0.637-62.056c-7.596-9.156,14.096-34.593,43.526-51.568
								c19.655-11.337,44.256-18.438,65.552-20.164C1115.273-105.674,1138.172-98.687,1148.048-73.715z"/>
						</g>
						<g>
							<path style="fill:none;stroke:#91C6B6;stroke-miterlimit:10;" d="M1148.929-62.668c7.31,18.486,10.725,41.663,16.947,62.733
								c6.982,23.646,14.66,45.917,13.861,62.977c-1.122,23.943-13.477,35.625-45.97,21.961c-38.07-16.008-54.891-1.984-68.227,0.48
								c-9.743,1.8-12.653-0.793-28.028-1.003c-44.134-0.603-51.9-30.597-40.273-58.944c11.627-28.347,16.628-29.669,0.252-54.975
								c-5.543-8.565,13.344-25.755,40.388-40.001c18.032-9.498,39.053-16.962,58.321-18.372
								C1118.599-89.452,1140.35-84.363,1148.929-62.668z"/>
						</g>
						<g>
							<path style="fill:none;stroke:#91C6B6;stroke-miterlimit:10;" d="M1119.119,68.072c-40.186-12.124-51.178,8.051-72.056,7.854
								c-42.985-0.405-46.111-32.367-36.433-55.963c9.679-23.595,8.13-24.739,0.131-44.581c-4.309-10.688,27.672-33.188,63.38-43.63
								c30.583-8.943,61.892-8.277,72.271,17.97c9.96,25.187,21.607,56.176,24.359,80.946
								C1174.235,61.847,1164.53,81.772,1119.119,68.072z"/>
						</g>
					</g>
					<g>
						
							<path style="fill:none;stroke:#91C6B6;stroke-width:1.5;stroke-linecap:round;stroke-linejoin:round;stroke-dasharray:0,3.0303;" d="
							M72.236,96.291c8.967-6.739,23.776-14.562,16.467-2.044c-4.916,8.419-10.193,18.619-10.971,27.984
							c-1.298,15.624-6.456,35.653-10.47,24.608C59.741,126.148,60.012,105.477,72.236,96.291z"/>
					</g>
					<g>
						<g>
							<path style="fill:none;stroke:#91C6B6;stroke-miterlimit:10;" d="M702.047,504.957c-12.934-14.025-27.913-28.423-42.384-43.4
								c-14.353-14.855-29.403-29.35-41.203-44.648c-13.628-17.668-23.251-36.306-27.657-53.859
								c-5.777-23.011-8.056-44.85-7.306-65.498c0.817-22.493,5.605-43.6,16.265-63.408c10.029-18.638,26.094-33.452,43.765-45.323
								c18.47-12.407,38.476-23.049,58.032-25.875c24.024-3.472,47.799,1.284,60.981,16.034
								c11.187,12.517,12.554,33.304,6.771,61.706c-5.624,27.624-11.372,47.652-18.669,62.812
								c-13.742,28.551-24.332,40.777-21.266,60.058c2.094,13.167,10.729,28.828,32.319,55.58
								c28.462,35.268,26.186,60.954,14.625,76.938C759.448,519.394,718.725,523.041,702.047,504.957z"/>
						</g>
						<g>
							
								<path style="fill:none;stroke:#91C6B6;stroke-width:1.5;stroke-linecap:round;stroke-linejoin:round;stroke-miterlimit:10;stroke-dasharray:0,3;" d="
								M705.175,488.785c-19.641-18.193-42.989-36.112-62.612-55.252c-22.53-21.975-38.416-46.353-44.235-69.533
								c-5.218-20.785-8.317-40.829-7.651-60.22c0.723-21.07,3.596-41.449,13.2-59.296c12.089-22.465,34.338-38.764,56.973-49.799
								c25.947-12.651,54.676-19.724,74.758-11.413c20.338,8.417,31.69,31.578,24.264,68.049
								c-9.036,44.381-25.063,65.684-34.405,82.113c-12.529,22.032-13.32,34.174,22.847,78.991
								c24.255,30.056,27.216,52.686,20.804,66.668C758.84,501.505,722.064,504.445,705.175,488.785z"/>
						</g>
						<g>
							<path style="fill:none;stroke:#91C6B6;stroke-miterlimit:10;" d="M700.022,472.718
								c-17.802-16.365-37.983-31.869-54.825-48.264c-19.624-19.104-33.805-40.274-39.029-61.08
								c-4.636-18.466-10.381-36.801-10.541-54.321c-0.174-19.161,3.898-38.206,12.487-54.166
								c10.777-20.026,30.168-36.859,50.346-46.697c23.131-11.277,49.398-13.073,67.3-5.664
								c18.131,7.504,27.423,26.126,20.804,58.639c-8.031,39.442-22.282,58.148-31.157,72.862
								c-11.966,19.839-14.313,32.873,18.003,72.917c21.075,26.115,24.824,43.749,20.343,56.012
								C746.268,483.443,715.361,486.848,700.022,472.718z"/>
						</g>
						<g>
							<path style="fill:none;stroke:#91C6B6;stroke-miterlimit:10;" d="M696.394,454.984
								c-15.978-14.553-32.355-29.359-47.227-43.351c-17.612-16.569-31.915-32.338-36.537-50.747
								c-8.524-33.955-13.797-68.264,0.642-95.097c9.465-17.588,27.586-30.3,45.308-38.94c20.315-9.904,41.852-12.162,57.574-5.655
								c15.923,6.59,24.813,21.65,19,50.204c-7.029,34.523-17.301,52.803-25.703,65.805c-11.395,17.634-16.993,27.062,11.459,62.318
								c17.854,22.124,23.634,37.986,21.049,48.53C737.389,466.699,710.203,467.6,696.394,454.984z"/>
						</g>
						<g>
							<path style="fill:none;stroke:#91C6B6;stroke-miterlimit:10;" d="M689.943,440.353
								c-14.716-13.249-29.198-24.774-41.17-37.005c-13.454-13.746-22.353-29.814-28.88-47.1
								c-10.651-28.211-10.662-54.703,1.775-77.816c12.479-23.189,37.384-37.956,60.663-41.319
								c27.018-3.904,51.242,7.322,43.579,44.96c-6.033,29.629-17.115,45.526-25.037,56.819
								c-10.812,15.411-16.529,22.352,8.044,52.802C751.497,444.453,708.655,457.261,689.943,440.353z"/>
						</g>
						<g>
							
								<path style="fill:none;stroke:#91C6B6;stroke-width:1.5;stroke-linecap:round;stroke-linejoin:round;stroke-miterlimit:10;stroke-dasharray:0,3;" d="
								M687.05,421.769c-27.609-24.493-54.801-45.418-60.961-69.958c-6.161-24.54-12.851-44.782-2.415-64.175
								c10.47-19.457,34.134-30.444,53.666-33.266c22.67-3.276,43.088,6.252,36.658,37.832
								c-11.97,58.79-53.449,47.918-17.723,92.187C732,428.658,702.858,435.836,687.05,421.769z"/>
						</g>
						<g>
							<path style="fill:none;stroke:#91C6B6;stroke-miterlimit:10;" d="M680.365,407.459c-23.963-20.846-42.35-38.76-47.329-58.593
								c-4.979-19.833-13.033-34.868-4.599-50.541c18.283-33.976,83.322-43.505,73.648,4.008
								c-9.674,47.513-49.417,40.661-20.544,76.439C710.414,414.548,693.269,418.685,680.365,407.459z"/>
						</g>
					</g>
					<g>
						<g>
							<path style="fill:none;stroke:#91C6B6;stroke-miterlimit:10;" d="M110.651,11.294C99.051,4.637,82.083-9.459,63.895-27.035
								C50.189-40.278,34.15-54.248,22.015-71.011C9.752-87.951,3.063-107.844-2.909-126.014
								c-7.43-22.605-15.712-44.889-15.5-66.882c0.229-23.822,5.702-47.412,16.333-67.167c10.03-18.638,26.911-33.971,44.582-45.841
								c18.47-12.407,39.595-20.777,59.151-23.603c24.024-3.472,47.346,0.817,60.528,15.567
								c11.187,12.518,16.744,33.783,10.961,62.185c-5.624,27.624-14.41,47.259-21.706,62.419
								c-13.742,28.551-26.891,40.664-23.825,59.945c2.094,13.167,11.478,29.355,33.067,56.108
								c27.842,34.5,31.805,58.737,23.666,73.427C172.029,22.382,132.305,23.722,110.651,11.294z"/>
						</g>
						<g>
							<path style="fill:none;stroke:#91C6B6;stroke-miterlimit:10;" d="M105.255-4.538C85.638-22.709,64.699-41.98,45.888-60.786
								c-21.645-21.639-38.71-43.79-44.535-66.994c-5.2-20.715-12.066-41.107-12.245-60.76c-0.196-21.493,7.556-40.99,17.19-58.893
								c12.089-22.465,31.599-40.702,54.235-51.738c25.947-12.651,54.361-17.592,74.443-9.281
								c20.338,8.417,32.581,30.13,25.156,66.601c-9.036,44.381-25.896,65.309-35.239,81.738
								c-12.529,22.032-15.157,36.431,21.011,81.248c24.255,30.056,29.865,50.864,23.453,64.846
								C159.078,8.395,122.144,11.122,105.255-4.538z"/>
						</g>
						<g>
							<path style="fill:none;stroke:#91C6B6;stroke-miterlimit:10;" d="M99.609-20.071C81.807-36.436,64.634-55.054,47.792-71.449
								C28.167-90.552,10.153-108.737,4.93-129.543c-4.636-18.466-6.2-37.136-6.359-54.656
								c-0.174-19.161,3.715-36.687,12.304-52.647C21.651-256.871,39.828-272,60.007-281.838
								c23.131-11.277,47.648-15.807,65.55-8.398c18.131,7.504,27.919,25.726,21.3,58.239
								c-8.031,39.442-22.039,58.416-30.914,73.131c-11.966,19.839-13.99,31.84,18.325,71.884
								c21.075,26.115,26.138,45.25,21.658,57.513C148.44-8.984,114.948-5.94,99.609-20.071z"/>
						</g>
						<g>
							<path style="fill:none;stroke:#91C6B6;stroke-miterlimit:10;" d="M97.083-39.009C81.105-53.562,64.008-67.578,49.136-81.57
								c-17.612-16.569-32.286-32.261-36.907-50.67c-8.524-33.955-10.672-66.891,3.767-93.724
								c9.465-17.588,23.795-33.938,41.517-42.578c20.315-9.904,42.526-9.072,58.249-2.565c15.923,6.59,27.158,21.127,21.345,49.68
								c-7.029,34.523-19.255,52.409-27.657,65.411c-11.395,17.634-16.555,26.695,11.898,61.952
								c17.854,22.124,24.158,38.585,21.573,49.129C138.348-26.288,110.892-26.393,97.083-39.009z"/>
						</g>
						<g>
							<path style="fill:none;stroke:#91C6B6;stroke-miterlimit:10;" d="M92.701-55.942C78.559-68.675,61.49-78.017,48.589-89.615
								c-15.611-14.035-29.84-28.105-33.86-44.118c-7.342-29.248-8.037-59.307,4.401-82.419
								c12.479-23.19,39.613-38.659,62.893-42.023c27.019-3.904,49.029,8.874,41.366,46.511
								c-6.033,29.629-17.566,43.959-25.489,55.251c-10.812,15.411-14.412,25.115,10.161,55.565
								C150.639-48.088,111.413-39.035,92.701-55.942z"/>
						</g>
						<g>
							<path style="fill:none;stroke:#91C6B6;stroke-miterlimit:10;" d="M85.564-69.795C57.955-94.288,27.06-111.608,20.9-136.148
								c-6.161-24.54-7.495-49.952,2.941-69.345c10.47-19.457,34.002-30.215,53.535-33.037c22.67-3.276,40.009,5.31,33.579,36.89
								c-11.97,58.79-52.954,50.584-17.229,94.853C129.451-62.519,101.372-55.729,85.564-69.795z"/>
						</g>
						<g>
							<path style="fill:none;stroke:#91C6B6;stroke-miterlimit:10;" d="M80.72-86.188c-23.963-20.847-49.784-32.262-54.763-52.095
								c-4.979-19.833-5.602-40.748,2.832-56.421c18.283-33.976,79.731-44.358,70.057,3.155
								c-9.674,47.513-46.785,41.799-17.912,77.576C109.808-78.196,93.625-74.962,80.72-86.188z"/>
						</g>
					</g>
					<g>
						<g>
							<path style="fill:none;stroke:#F55D47;stroke-miterlimit:10;" d="M711.396-157.155
								c-28.464,9.234-38.957,25.042-41.644,41.871c-2.883,18.057,5.311,38.606,12.206,59.84
								c6.805,20.955,13.9,42.913,10.299,61.387c-5.285,27.116-15.281,44.369-24.429,56.488
								c-14.81,19.621-30.558,27.256-20.351,53.072c16.51,41.762-27.124,56.536,60.756,34.264
								c42.059-10.659,61.982,9.428,70.698,37.91c9.496,31.03,4.692,72.138,12.263,89.444c8.27,18.904,29.501,33.815,55.779,40.829
								c20.585,5.494,45.457,6.415,70.076,3.771c22.751-2.443,45.107-11.339,66.239-21.338
								c21.172-10.018,41.503-22.172,56.165-40.363c13.885-17.227,22.744-38.759,26.519-63.827
								c3.071-20.391,1.775-43.2-4.336-69.078c-4.746-20.098-11.137-42.403-22.619-65.954
								c-11.372-23.327-21.307-45.772-32.097-66.144c-12.298-23.219-27.843-42.542-39.378-62.141
								c-13.586-23.082-24.236-45.203-36.755-63.615c-15.562-22.887-29.881-42.766-43.777-59.093
								c-19.197-22.555-38.951-36.766-54.923-48.454c-27.533-20.149-49.021-26.922-66.756-22.547
								c-34.329,8.468,11.49,34.633,6.024,63.403C768.7-183.451,752.779-170.581,711.396-157.155z"/>
						</g>
						<g>
							<path style="fill:none;stroke:#91C6B6;stroke-miterlimit:10;" d="M723.304-141.588
								c-39.001,13.859-40.101,36.811-34.641,65.117c5.372,27.851,15.054,58.805,9.766,84.467
								c-5.242,25.744-12.823,40.461-20.445,51.567c-12.008,17.495-23.107,26.109-19.153,51.508
								c4.532,29.105-14.923,47.454,57.323,32.695c39.233-8.015,56.029,10.261,64.519,35.846
								c9.497,28.619,10.019,64.698,17.261,81.064c8.635,19.653,30.38,35.592,60.161,40.977c22.918,4.144,50.196,3.542,76.097-2.036
								c24.655-5.31,47.722-18.059,67.741-33.157c19.8-14.933,34.627-34.556,42.929-59.994c6.89-21.111,12.071-45.822,6.677-74.75
								c-4.015-21.53-14.125-44.809-26.857-70.924c-10.523-21.585-18.975-42.675-28.915-61.496
								c-11.357-21.506-25.764-39.338-36.367-57.455c-12.526-21.405-22.673-41.603-34.157-58.635
								c-14.336-21.262-27.328-39.703-40.061-54.827c-17.681-21-33.929-36.534-48.575-47.432
								c-25.29-18.818-46.422-23.496-62.922-20.377c-32.023,6.053,1.922,29.367-2.688,55.875
								C768.705-170.369,759.018-154.279,723.304-141.588z"/>
						</g>
						<g>
							
								<path style="fill:none;stroke:#91C6B6;stroke-width:1.5;stroke-linecap:round;stroke-linejoin:round;stroke-miterlimit:10;stroke-dasharray:0,3;" d="
								M734.218-129.214c-33.347,13.304-34.799,34.821-31.019,61.594c3.647,25.83,9.806,54.295,4.621,78.293
								c-13.301,61.552-33.231,56.893-35.161,95.984c-0.649,13.143-24.948,49.235,51.644,29.825
								c36.422-9.23,51.882,10.292,59.937,34.236c8.884,26.408,9.037,60.444,15.767,75.568c7.883,17.715,30.218,29.43,58.107,34.245
								c21.212,3.662,45.331,1.809,69.262-3.314c22.833-4.888,45.297-12.729,63.8-26.628c18.331-13.77,32.292-32.198,39.884-55.78
								c6.273-19.487,8.849-42.275,3.76-69.065c-3.775-19.874-10.436-42.269-22.211-66.422
								c-11.763-24.128-22.544-46.64-33.449-66.993c-12.938-24.147-26.009-45.407-37.777-64.673
								c-14.791-24.216-30.152-43.766-43.166-61.107c-18.341-24.44-34.058-43.282-49.058-56.294
								c-27.485-23.841-49.659-29.417-66.984-27.293c-29.652,3.636-2.226,23.912-5.908,48.038
								C774.364-156.529,764.409-141.259,734.218-129.214z"/>
						</g>
						<g>
							<path style="fill:none;stroke:#91C6B6;stroke-miterlimit:10;" d="M743.877-119.696
								c-27.557,12.812-29.241,35.876-27.22,61.127c1.903,23.781,6.732,49.855,1.625,72.159
								c-13.01,56.823-41.066,52.988-34.308,88.607c4.92,25.931-22.336,45.848,48.612,27.868
								c33.814-8.569,46.494,6.796,54.42,29.848c8.705,25.314,8.623,58.121,14.899,72.074c8.228,18.292,36.806,27.345,68.656,29.845
								c24.093,1.891,50.608-1.17,75.224-10.488c24.314-9.203,44.658-24.249,58.632-46.203
								c12.263-19.266,19.849-42.436,16.351-72.826c-2.467-21.435-10.257-45.312-23.657-72.798
								c-10.735-22.02-20.287-42.574-30.173-61.106c-11.774-22.071-23.332-41.515-33.96-59.071
								c-13.432-22.19-23.699-42.543-35.413-58.366c-16.648-22.487-32.772-38.318-46.259-50.257
								c-24.838-21.986-45.004-28.076-60.87-27.355C748.338-194.727,813.81-152.209,743.877-119.696z"/>
						</g>
						<g>
							<path style="fill:none;stroke:#91C6B6;stroke-miterlimit:10;" d="M753.851-108.787c-21.532,12.4-26.144,35.522-26.017,59.266
								c0.116,21.693,4.226,45.063-0.791,65.641c-12.702,52.096-39.047,49.265-30.861,81.615
								c4.99,19.719-21.926,42.565,43.378,26.015c30.888-7.828,44.144,7.145,51.941,27.49c8.688,22.669,9.788,52.037,15.667,64.939
								c7.291,16,32.414,23.912,61.874,26.026c21.982,1.577,45.705-1.589,68.117-9.986c22.229-8.328,45.091-18.411,57.767-38.43
								c11.087-17.51,12.242-40.872,8.895-68.667c-2.346-19.485-5.148-42.704-17.366-67.767
								c-12.399-25.433-24.327-48.118-35.376-68.403c-14.063-25.819-27.607-47.494-39.669-66.009
								c-17.45-26.787-34.014-45.737-47.803-60.206c-27.526-28.883-48.045-38.326-64.715-39.085
								C759.577-178.141,805.582-138.578,753.851-108.787z"/>
						</g>
						<g>
							<path style="fill:none;stroke:#91C6B6;stroke-miterlimit:10;" d="M767.213-93.153c-17.272,9.234-22.195,28.308-23.594,51.844
								c-1.189,20.004,0.661,42.409-4.165,60.884c-12.374,47.373-40.21,44.596-33.483,74.331
								c4.809,21.257-18.44,37.669,41.22,22.549c28.099-7.121,40.132,7.367,47.689,25.684c8.488,20.575,10.235,47.273,15.697,59.07
								c7.545,16.295,38.778,24.117,72.568,22.811c25.777-0.996,52.506-8.378,73.497-23.891
								c20.01-14.788,34.665-35.594,34.92-66.856c0.172-21.063-7.586-45.237-22.094-74.995
								c-11.094-22.757-19.819-43.849-29.599-61.943c-12.531-23.183-24.593-42.366-35.19-58.904
								c-15.518-24.219-27.208-43.414-39.237-56.389c-24.337-26.251-42.947-34.625-57.852-36.929
								C770.98-161.549,796.147-126.463,767.213-93.153z"/>
						</g>
						<g>
							<path style="fill:none;stroke:#91C6B6;stroke-miterlimit:10;" d="M777.247-82.305c-11.373,8.158-15.981,27.599-19.519,49.981
								c-2.844,17.987-8.195,36.864-12.882,53.493c-12.022,42.655-37.594,47.963-26.723,68.417
								c5.013,9.432-17.43,32.81,36.586,19.12c25.313-6.415,39.36,6.691,46.671,22.985c8.29,18.478,7.998,43.658,13.049,54.346
								c6.367,13.473,34.756,20.184,65.433,18.907c23.072-0.96,49.041-4.542,67.734-18.248
								c17.858-13.094,28.026-34.427,28.002-62.526c-0.016-18.717-5.338-40.724-18.302-67.317
								c-13.598-27.893-23.319-52.912-34.523-72.961c-16.677-29.843-33.054-50.466-45.404-66.687
								c-28.101-36.908-46.082-44.82-61.716-49.325C781.727-141.893,786.655-114.064,777.247-82.305z"/>
						</g>
						<g>
							<path style="fill:none;stroke:#91C6B6;stroke-miterlimit:10;" d="M786.105-70.627c-9.074,12.346-16.876,61.362-27.435,95.782
								c-11.64,37.945-30.421,35.355-28.134,59.967c1.448,15.583,1.601,24.312,32.632,20.107
								c49.449-6.701,45.13,48.34,53.834,66.262c6.429,13.238,45.441,19.829,80.138,12.844
								c27.498-5.536,51.293-20.768,59.374-49.389c5.546-19.644,4.322-44.89-12.333-79.055
								c-11.811-24.228-21.842-44.958-31.368-62.293c-14.393-26.194-27.085-44.728-37.354-58.79
								c-24.101-33.002-36.95-41.252-50.474-47.427C793.858-126.832,775.987-100.837,786.105-70.627z"/>
						</g>
						<g>
							<path style="fill:none;stroke:#91C6B6;stroke-miterlimit:10;" d="M796.889-57.765c2.365,9.978-22.125,52.829-32.759,84.336
								c-11.222,33.248-31.524,34.438-23.496,54.742c8.027,20.305-0.271,23.593,30.572,18.398
								c43.466-7.321,44.271,39.632,52.211,55.342c4.848,9.591,37.353,18.277,67.923,12.306c23.911-4.67,44.282-19.224,50.926-44.13
								c4.485-16.816,5.485-39.764-8.96-69.395c-16.669-34.192-29.972-59.696-41.052-78.573
								c-30.928-52.691-46.837-52.848-61.039-62.474C803.194-106.206,767.245-86.424,796.889-57.765z"/>
						</g>
						<g>
							<path style="fill:none;stroke:#91C6B6;stroke-miterlimit:10;" d="M809.613-48.342c13.804,7.61-22.968,49.83-33.727,78.402
								c-10.759,28.572-30.253,29.229-23.286,46.852c6.967,17.623-11.59,21.245,25.494,11.847
								c37.084-9.398,42.218,37.469,49.503,50.909c3.201,5.905,30.549,11.011,56.998,6.086
								c20.326-3.785,38.629-12.885,43.837-34.103c3.439-14.012,1.785-32.621-10.445-57.707
								c-13.794-28.295-26.438-47.992-35.04-63.459c-25.602-46.032-30.808-45.802-42.642-57.434
								C815.896-90.94,760.443-75.451,809.613-48.342z"/>
						</g>
					</g>
					<g>
						<path style="fill:none;stroke:#91C6B6;stroke-miterlimit:10;" d="M519.147-122.485c23.985,8.727,46.675,17.17,66.912,25.444
							c25.384,10.379,46.298,22.802,60.154,38.272c14.679,16.389,19.545,37.467,14.043,67.037
							c-7.897,42.437-28.907,56.761-55.117,51.865c-23.034-4.302-49.749-22.912-72.774-44.355
							c-19.807-18.446-37.251-26.002-53.126-26.515c-25.898-0.837-44.745,16.07-55.173,22.594
							c-17.142,10.725-45.485,2.905-53.972-26.14c-4.513-15.446-0.614-37.118,8.443-65.722
							c11.563-36.518,32.281-52.816,56.801-56.393C466.137-140.891,500.844-129.144,519.147-122.485z"/>
					</g>
					<g>
						<path style="fill:none;stroke:#91C6B6;stroke-miterlimit:10;" d="M782.251,286.443c21.122,14.16,35.467,24.181,17.277,25.077
							c-13.415,0.661-16.838-1.4-29.979,2.66C750.307,320.124,761.053,272.232,782.251,286.443z"/>
					</g>
					<g>
						<path style="fill:none;stroke:#91C6B6;stroke-miterlimit:10;" d="M645.591,323.479c0.055-0.48,6.865-25.513,18.312-23.571
							c11.447,1.942,13.644,15.573,7.073,21.283C664.404,326.902,643.462,342.205,645.591,323.479z"/>
					</g>
					<g>
						
							<path style="fill:none;stroke:#91C6B6;stroke-width:1.5;stroke-linecap:round;stroke-linejoin:round;stroke-miterlimit:10;stroke-dasharray:0,3;" d="
							M439.455,429.986c-9.619,19.54-12.795,27.097-16.628,40.061c-3.833,12.964-5.365,17.305-1.198,16.805
							c4.167-0.5,3.327-7.476,14.905-18.984C450.367,454.116,447.955,408.486,439.455,429.986z"/>
					</g>
					<g>
						<path style="fill:none;stroke:#91C6B6;stroke-miterlimit:10;" d="M469.11,398.79c-0.305,6.56-1.528,9.539-1.77,16.292
							c-0.469,13.045-2.043,25.979-6.23,38.418c-3.944,11.716-10.185,21.972-16.604,32.475c-2.547,4.167-1.989,9.961-3.19,14.776
							c-1.364,5.464-2.121,9.82,0.296,14.57c5.435,10.685,38.055,23.344,60.781-2.296c5.387-6.077,17.726-5.326,20.319-12.868
							c5.5-16,3.766-34.286-7.977-54.093C503.249,426.695,469.777,384.456,469.11,398.79z"/>
					</g>
					<g>
						<path style="fill:none;stroke:#91C6B6;stroke-miterlimit:10;" d="M483.768,455.907c-2.435,4.061-5.921,1.836-8.796,10.633
							s-1.81,13.513-1.103,18.108c0.5,3.25,2.985,6.03,9.027,4.364c8.586-2.369,12.745-17.7,8.745-26.186
							S486.42,451.485,483.768,455.907z"/>
					</g>
					<g>
						<path style="fill:none;stroke:#91C6B6;stroke-miterlimit:10;" d="M16.903,305.79c2.103,4.031,2.698,8.234,4.031,10.374
							c8.74,14.039,17.132,23.725,33.874,40.524c16.564,16.622,26.896,23.17,37.336,32.055c26.311,22.391,30.219,20.72,32.168,19.58
							c5.119-2.995,3.083-13.842,2.61-22.713c-0.702-13.187-3.85-19.528-0.626-23.495c4.796-5.903,16.279,0.756,20.777-4.368
							c4.568-5.204,0.616-16.749-9.093-36.958c-16.529-34.403-13.908-29.289-22.806-44.299
							c-9.079-15.313-18.392-31.071-37.144-44.323c-8.993-6.355-19.64-17.031-35.901-17.944c-7.234-0.406-23.087,0.297-32.821,9.547
							C-9.998,242.114,7.074,286.953,16.903,305.79z"/>
					</g>
					<g>
						<path style="fill:none;stroke:#91C6B6;stroke-miterlimit:10;" d="M330.856,528.752c-6.912-12.319-16.359-34.944-18.394-64.121
							c-1.065-15.28-1.038-14.003-1.686-39.349c-0.659-25.772-1.217-28.242,1.044-41.557c2.784-16.389,10.358-27.637,17.911-39.805
							c11.991-19.317,13.683-20.453,20.934-36.736c4.987-11.2,10.703-24.019,12.108-29.361c4.137-15.72,4.357-21.445,10.44-27.343
							c3.217-3.119,4.055-5.552,18.629-10.99c20.425-7.621,18.027-5.82,30.394-10.028c18.276-6.22,22.12-6.524,33.137-12.055
							c12.85-6.451,18.997-14.281,19.89-22.401c0.256-2.329,4.515-14.617-2.901-33.117c-3.497-8.723-23.033-36.771-29.177-49.94
							c-9.332-20.002-13.221-31.488-11.724-42.735c1.648-12.371,8.001-28.037,19.193-34.999c17.462-10.862,39.338-7.221,56.32-2.012
							c6.432,1.973,24.045,9.557,37.868,20.368c8,6.256,32.243,26.921,38.822,29.916c14.098,6.418,17.439,6.516,26.944,11.691
							c10.19,5.548,13.236,5.736,17.313,12.09c6.746,10.511,6.84,23.022,6.094,29.079c-1.001,8.126-5.096,20.552-6.492,23.695
							c-2.242,5.047-16.674,20.297-23.113,29.171c-8.727,12.026-8.42,15.132-10.464,18.032
							c-1.336,1.896-11.668,13.083-17.642,29.062c-5.074,13.568-6.417,26.273-7.305,41.904c-2.571,45.253-1.664,69.087,9.496,96.002
							c7.098,17.118,16.939,31.052,37.207,56.474c17.584,22.055,22.791,22.628,31.221,38.579
							c3.163,5.984,13.22,27.096,15.466,56.189c0.741,9.595,3.17,25.777-1.892,44.588c-2.028,7.535-13.194,40.877-44.035,61.91
							c-23.428,15.978-46.848,17.692-77.464,17.705c-44.257,0.018-77.337-15.173-90.795-20.752
							c-19.041-7.894-35.253-16.552-48.322-26.043c-19.833-14.404-31.626-29.98-39.249-38.347
							C343.817,545.052,332.916,532.423,330.856,528.752z"/>
					</g>
					<g>
						<path style="fill:none;stroke:#91C6B6;stroke-miterlimit:10;" d="M5.5,232.922"/>
					</g>
					<g>
						<path style="fill:none;stroke:#91C6B6;stroke-miterlimit:10;" d="M144.241,45.028c14.658-8.181,29.667-16.632,40.212-10.075
							c7.971,4.957,6.194,11.693,13.642,30.411c8.123,20.414,17.541,18.009,30.653,41.824c6.728,12.221,10.381,27.884,10.679,46.848
							c0.246,15.625-5.196,16.359-8.868,42.624c-2.753,19.69-0.713,35.299-0.361,40.748c0.679,10.524,4.446,27.148,11.864,46.732
							c11.578,30.569,24.256,38.159,20.665,55.869c-1.509,7.44-5.374,14.375-12.681,16.295c-5.377,1.413-10.279,1.272-26.578-11.038
							c-13.626-10.29-23.418-18.624-26.314-21.049c-19.388-16.239-20.551-14.612-38.817-29.552
							c-7.79-6.372-22.03-16.557-36.471-31.931c-13.705-14.592-23.159-24.197-32.182-39.421
							c-9.732-16.422-15.732-33.954-14.441-55.174c0.202-3.319,1.237-11.587,4.658-28.486c2.896-14.305,2.604-21.984,4.88-28.395
							c4.997-14.074,11.356-24.079,15.804-30.138C117.138,58.567,137.763,48.644,144.241,45.028z"/>
					</g>
				</g>
			</g>
		</g>
	</g>
</g>
<g>
	
		<line style="fill:none;stroke:#F55D47;stroke-width:1.6;stroke-miterlimit:10;" x1="68.254" y1="296.203" x2="68.254" y2="303.797"/>
	<line style="fill:none;stroke:#F55D47;stroke-width:1.6;stroke-miterlimit:10;" x1="72.051" y1="300" x2="64.457" y2="300"/>
</g>
<g>
	
		<line style="fill:none;stroke:#F55D47;stroke-width:1.6;stroke-miterlimit:10;" x1="311.754" y1="139.703" x2="311.754" y2="147.297"/>
	<line style="fill:none;stroke:#F55D47;stroke-width:1.6;stroke-miterlimit:10;" x1="315.551" y1="143.5" x2="307.957" y2="143.5"/>
</g>
<g>
	
		<line style="fill:none;stroke:#F55D47;stroke-width:1.6;stroke-miterlimit:10;" x1="454.754" y1="319.012" x2="454.754" y2="326.605"/>
	
		<line style="fill:none;stroke:#F55D47;stroke-width:1.6;stroke-miterlimit:10;" x1="458.551" y1="322.809" x2="450.957" y2="322.809"/>
</g>
<g>
	
		<line style="fill:none;stroke:#F55D47;stroke-width:1.6;stroke-miterlimit:10;" x1="483.921" y1="467.203" x2="483.921" y2="474.797"/>
	<line style="fill:none;stroke:#F55D47;stroke-width:1.6;stroke-miterlimit:10;" x1="487.717" y1="471" x2="480.124" y2="471"/>
</g>
<g>
	
		<line style="fill:none;stroke:#F55D47;stroke-width:1.6;stroke-miterlimit:10;" x1="540.504" y1="144.203" x2="540.504" y2="151.797"/>
	<line style="fill:none;stroke:#F55D47;stroke-width:1.6;stroke-miterlimit:10;" x1="544.301" y1="148" x2="536.707" y2="148"/>
</g>
<g>
	
		<line style="fill:none;stroke:#F55D47;stroke-width:1.6;stroke-miterlimit:10;" x1="661.421" y1="308.87" x2="661.421" y2="316.464"/>
	
		<line style="fill:none;stroke:#F55D47;stroke-width:1.6;stroke-miterlimit:10;" x1="665.217" y1="312.667" x2="657.624" y2="312.667"/>
</g>
<g>
	
		<line style="fill:none;stroke:#F55D47;stroke-width:1.6;stroke-miterlimit:10;" x1="153.921" y1="181.203" x2="153.921" y2="188.797"/>
	<line style="fill:none;stroke:#F55D47;stroke-width:1.6;stroke-miterlimit:10;" x1="157.717" y1="185" x2="150.124" y2="185"/>
</g>
<path style="fill:none;stroke:#91C6B6;stroke-miterlimit:10;" d="M146,293c-6.632-4.977-10.667-14.167-13.5-10.333
	c-2.833,3.833,13.286,37.342,19.833,48.333c4.979,8.358,9.175,13.961,13.333,19.333c13.506,17.448,20.259,26.172,30.333,29
	c13.149,3.691,24.547-2.352,26.333-3.333c3.872-2.128,10.461-5.75,11-11.333c0.514-5.318-4.839-8.527-19-20.667
	c-16.225-13.909-14.692-11.359-25.833-20c-16.332-12.667-14.394-10.666-23.833-19.333C157.934,298.484,152.746,298.063,146,293z"/>
<path style="fill:none;stroke:#91C6B6;stroke-miterlimit:10;" d="M189.25,354.25c-0.012,4.284,15.476,9.589,17.75,6.5
	c1.555-2.113-1.7-10.017-8.25-11C194.255,349.076,189.257,351.819,189.25,354.25z"/>
<path style="fill:none;stroke:#91C6B6;stroke-miterlimit:10;" d="M379.333,72c-3.628,5.392,4.566,19.669,11.667,19
	c5.492-0.517,8.91-9.425,5.667-16C393.045,67.659,382.435,67.391,379.333,72z"/>
</svg>
